<svg width="277" height="287" viewBox="0 0 277 287" fill="none" xmlns="http://www.w3.org/2000/svg">
<path d="M139.79 0.331055L139.12 48.276" stroke="#2ABB9E" stroke-width="2" stroke-miterlimit="10" stroke-linejoin="round" stroke-dasharray="16 6"/>
<path fill-rule="evenodd" clip-rule="evenodd" d="M133.636 48.1992L138.909 63.3423L144.603 48.3525L133.636 48.1992Z" fill="#2ABB9E" stroke="#2ABB9E" stroke-width="2" stroke-miterlimit="10"/>
<path fill-rule="evenodd" clip-rule="evenodd" d="M51.5906 68.1963H226.092C254.192 68.1963 276.97 90.9754 276.97 119.074C276.97 147.174 254.192 169.953 226.092 169.953H51.5906C23.4915 169.953 0.712402 147.174 0.712402 119.074C0.712402 90.9754 23.4915 68.1963 51.5906 68.1963Z" fill="#2ABB9E"/>
<path d="M37.6844 83.6866V100.989H34.2085V83.6866H37.6844ZM46.2706 83.6866L40.6675 92.2727L37.2435 96.5528L36.569 93.0768L38.7999 89.3674L42.0424 83.6866H46.2706ZM42.2758 100.989L38.4886 93.0509L41.0307 90.7941L46.3743 100.989H42.2758ZM59.4666 91.0016V93.881C59.4666 95.1088 59.311 96.181 58.9997 97.0975C58.7057 97.9968 58.282 98.7577 57.7286 99.3802C57.1925 99.9855 56.544 100.444 55.7831 100.755C55.0222 101.066 54.1835 101.222 53.2669 101.222C52.3331 101.222 51.4857 101.066 50.7248 100.755C49.9639 100.444 49.3068 99.9855 48.7534 99.3802C48.2 98.7577 47.7677 97.9968 47.4564 97.0975C47.1624 96.181 47.0154 95.1088 47.0154 93.881V91.0016C47.0154 89.7392 47.1624 88.6411 47.4564 87.7073C47.7504 86.7734 48.1741 85.9952 48.7275 85.3727C49.2808 84.7328 49.938 84.2573 50.6989 83.946C51.4598 83.6174 52.3072 83.4531 53.241 83.4531C54.1576 83.4531 54.9963 83.6174 55.7572 83.946C56.5181 84.2573 57.1752 84.7328 57.7286 85.3727C58.282 85.9952 58.7057 86.7734 58.9997 87.7073C59.311 88.6411 59.4666 89.7392 59.4666 91.0016ZM55.9906 93.881V90.9757C55.9906 90.1456 55.9301 89.4453 55.8091 88.8746C55.7053 88.2866 55.5324 87.811 55.2903 87.4479C55.0482 87.0674 54.7542 86.7907 54.4083 86.6178C54.0797 86.4449 53.6906 86.3584 53.241 86.3584C52.7741 86.3584 52.3677 86.4449 52.0218 86.6178C51.6933 86.7907 51.4079 87.0674 51.1658 87.4479C50.941 87.811 50.7681 88.2866 50.647 88.8746C50.526 89.4453 50.4654 90.1456 50.4654 90.9757V93.881C50.4654 94.6765 50.526 95.3596 50.647 95.9302C50.7681 96.4836 50.9496 96.9419 51.1918 97.3051C51.4339 97.6509 51.7192 97.9103 52.0478 98.0833C52.3936 98.2562 52.8 98.3427 53.2669 98.3427C53.6993 98.3427 54.0884 98.2562 54.4342 98.0833C54.7801 97.9103 55.0655 97.6509 55.2903 97.3051C55.5324 96.9419 55.7053 96.4836 55.8091 95.9302C55.9301 95.3596 55.9906 94.6765 55.9906 93.881ZM74.0733 83.6866V100.989H70.7271L65.2797 90.1716V100.989H61.9853V83.6866H65.3056L70.7789 94.6332V83.6866H74.0733ZM84.1988 96.449C84.1988 96.1378 84.1728 95.8524 84.1209 95.593C84.0691 95.3336 83.948 95.1002 83.7578 94.8926C83.5848 94.6851 83.3254 94.4776 82.9796 94.2701C82.651 94.0453 82.2187 93.8205 81.6826 93.5956C81.0427 93.3189 80.4202 93.0336 79.8149 92.7396C79.2096 92.4283 78.6649 92.0738 78.1807 91.6761C77.6965 91.261 77.316 90.7768 77.0393 90.2234C76.7626 89.6701 76.6243 89.0216 76.6243 88.278C76.6243 87.5516 76.754 86.8945 77.0134 86.3065C77.2901 85.7185 77.6705 85.217 78.1548 84.802C78.639 84.3697 79.2096 84.0411 79.8668 83.8163C80.5412 83.5742 81.2848 83.4531 82.0976 83.4531C83.2044 83.4531 84.1642 83.6866 84.977 84.1535C85.7897 84.6031 86.4209 85.2343 86.8706 86.0471C87.3202 86.8426 87.545 87.7592 87.545 88.7968H84.0691C84.0691 88.2952 83.9999 87.8629 83.8615 87.4998C83.7232 87.1193 83.4984 86.8253 83.1871 86.6178C82.8931 86.393 82.5127 86.2806 82.0457 86.2806C81.5961 86.2806 81.2243 86.3757 80.9303 86.5659C80.6536 86.7389 80.4461 86.981 80.3078 87.2922C80.1694 87.5862 80.1002 87.9234 80.1002 88.3039C80.1002 88.5806 80.1694 88.8313 80.3078 89.0562C80.4461 89.281 80.6363 89.4885 80.8784 89.6787C81.1206 89.8516 81.4059 90.0246 81.7345 90.1975C82.0803 90.3531 82.4521 90.5088 82.8499 90.6644C83.6454 90.9757 84.3371 91.3216 84.9251 91.702C85.5303 92.0652 86.0318 92.4802 86.4296 92.9471C86.8446 93.3968 87.1559 93.9069 87.3634 94.4776C87.571 95.0483 87.6747 95.6968 87.6747 96.4231C87.6747 97.1321 87.545 97.7893 87.2856 98.3945C87.0435 98.9825 86.6803 99.4927 86.1961 99.925C85.7292 100.34 85.1585 100.66 84.4841 100.885C83.827 101.11 83.0833 101.222 82.2533 101.222C81.4578 101.222 80.6969 101.11 79.9705 100.885C79.2615 100.66 78.639 100.314 78.1029 99.8472C77.5668 99.3802 77.1431 98.7923 76.8318 98.0833C76.5205 97.3742 76.3649 96.5269 76.3649 95.5411H79.8408C79.8408 96.0599 79.8927 96.5096 79.9965 96.89C80.1002 97.2532 80.2559 97.5472 80.4634 97.772C80.6882 97.9795 80.9563 98.1351 81.2675 98.2389C81.5788 98.3427 81.9333 98.3945 82.3311 98.3945C82.798 98.3945 83.1612 98.3081 83.4206 98.1351C83.6973 97.9622 83.8961 97.7287 84.0172 97.4348C84.1382 97.1408 84.1988 96.8122 84.1988 96.449ZM97.7938 83.6866H101.244V95.5671C101.244 96.8987 101.002 97.9881 100.518 98.8355C100.033 99.6656 99.3589 100.271 98.4942 100.651C97.6469 101.032 96.6698 101.222 95.563 101.222C94.4562 101.222 93.4705 101.032 92.6059 100.651C91.7412 100.271 91.0668 99.6656 90.5825 98.8355C90.1156 97.9881 89.8822 96.8987 89.8822 95.5671V83.6866H93.3581V95.5671C93.3581 96.328 93.4359 96.9073 93.5916 97.3051C93.7645 97.7028 94.0153 97.9795 94.3438 98.1351C94.6724 98.2735 95.0788 98.3427 95.563 98.3427C96.0645 98.3427 96.4709 98.2735 96.7822 98.1351C97.1108 97.9795 97.3615 97.7028 97.5344 97.3051C97.7074 96.9073 97.7938 96.328 97.7938 95.5671V83.6866ZM113.498 98.1092V100.989H106.313V98.1092H113.498ZM107.376 83.6866V100.989H103.9V83.6866H107.376ZM119.982 83.6866V100.989H116.507V83.6866H119.982ZM124.263 83.6866V86.5659H112.304V83.6866H124.263ZM131.119 86.7734L127.409 100.989H123.752L129.147 83.6866H131.43L131.119 86.7734ZM134.076 100.989L130.314 86.7734L129.977 83.6866H132.312L137.759 100.989H134.076ZM134.205 94.5295V97.4348H126.398V94.5295H134.205ZM146.712 96.449C146.712 96.1378 146.686 95.8524 146.634 95.593C146.583 95.3336 146.461 95.1002 146.271 94.8926C146.098 94.6851 145.839 94.4776 145.493 94.2701C145.164 94.0453 144.732 93.8205 144.196 93.5956C143.556 93.3189 142.934 93.0336 142.328 92.7396C141.723 92.4283 141.178 92.0738 140.694 91.6761C140.21 91.261 139.829 90.7768 139.553 90.2234C139.276 89.6701 139.138 89.0216 139.138 88.278C139.138 87.5516 139.267 86.8945 139.527 86.3065C139.804 85.7185 140.184 85.217 140.668 84.802C141.152 84.3697 141.723 84.0411 142.38 83.8163C143.055 83.5742 143.798 83.4531 144.611 83.4531C145.718 83.4531 146.678 83.6866 147.49 84.1535C148.303 84.6031 148.934 85.2343 149.384 86.0471C149.834 86.8426 150.058 87.7592 150.058 88.7968H146.583C146.583 88.2952 146.513 87.8629 146.375 87.4998C146.237 87.1193 146.012 86.8253 145.701 86.6178C145.407 86.393 145.026 86.2806 144.559 86.2806C144.11 86.2806 143.738 86.3757 143.444 86.5659C143.167 86.7389 142.96 86.981 142.821 87.2922C142.683 87.5862 142.614 87.9234 142.614 88.3039C142.614 88.5806 142.683 88.8313 142.821 89.0562C142.96 89.281 143.15 89.4885 143.392 89.6787C143.634 89.8516 143.919 90.0246 144.248 90.1975C144.594 90.3531 144.966 90.5088 145.363 90.6644C146.159 90.9757 146.851 91.3216 147.439 91.702C148.044 92.0652 148.545 92.4802 148.943 92.9471C149.358 93.3968 149.669 93.9069 149.877 94.4776C150.084 95.0483 150.188 95.6968 150.188 96.4231C150.188 97.1321 150.058 97.7893 149.799 98.3945C149.557 98.9825 149.194 99.4927 148.71 99.925C148.243 100.34 147.672 100.66 146.998 100.885C146.34 101.11 145.597 101.222 144.767 101.222C143.971 101.222 143.21 101.11 142.484 100.885C141.775 100.66 141.152 100.314 140.616 99.8472C140.08 99.3802 139.657 98.7923 139.345 98.0833C139.034 97.3742 138.878 96.5269 138.878 95.5411H142.354C142.354 96.0599 142.406 96.5096 142.51 96.89C142.614 97.2532 142.769 97.5472 142.977 97.772C143.202 97.9795 143.47 98.1351 143.781 98.2389C144.092 98.3427 144.447 98.3945 144.845 98.3945C145.311 98.3945 145.675 98.3081 145.934 98.1351C146.211 97.9622 146.41 97.7287 146.531 97.4348C146.652 97.1408 146.712 96.8122 146.712 96.449ZM156.131 83.6866V100.989H152.681V83.6866H156.131ZM168.179 83.6866V100.989H164.703V83.6866H168.179ZM176.765 83.6866L171.162 92.2727L167.738 96.5528L167.064 93.0768L169.294 89.3674L172.537 83.6866H176.765ZM172.77 100.989L168.983 93.0509L171.525 90.7941L176.869 100.989H172.77ZM189.961 91.0016V93.881C189.961 95.1088 189.806 96.181 189.494 97.0975C189.2 97.9968 188.777 98.7577 188.223 99.3802C187.687 99.9855 187.039 100.444 186.278 100.755C185.517 101.066 184.678 101.222 183.762 101.222C182.828 101.222 181.98 101.066 181.219 100.755C180.458 100.444 179.801 99.9855 179.248 99.3802C178.695 98.7577 178.262 97.9968 177.951 97.0975C177.657 96.181 177.51 95.1088 177.51 93.881V91.0016C177.51 89.7392 177.657 88.6411 177.951 87.7073C178.245 86.7734 178.669 85.9952 179.222 85.3727C179.775 84.7328 180.433 84.2573 181.193 83.946C181.954 83.6174 182.802 83.4531 183.736 83.4531C184.652 83.4531 185.491 83.6174 186.252 83.946C187.013 84.2573 187.67 84.7328 188.223 85.3727C188.777 85.9952 189.2 86.7734 189.494 87.7073C189.806 88.6411 189.961 89.7392 189.961 91.0016ZM186.485 93.881V90.9757C186.485 90.1456 186.425 89.4453 186.304 88.8746C186.2 88.2866 186.027 87.811 185.785 87.4479C185.543 87.0674 185.249 86.7907 184.903 86.6178C184.574 86.4449 184.185 86.3584 183.736 86.3584C183.269 86.3584 182.862 86.4449 182.516 86.6178C182.188 86.7907 181.902 87.0674 181.66 87.4479C181.436 87.811 181.263 88.2866 181.142 88.8746C181.021 89.4453 180.96 90.1456 180.96 90.9757V93.881C180.96 94.6765 181.021 95.3596 181.142 95.9302C181.263 96.4836 181.444 96.9419 181.686 97.3051C181.928 97.6509 182.214 97.9103 182.542 98.0833C182.888 98.2562 183.295 98.3427 183.762 98.3427C184.194 98.3427 184.583 98.2562 184.929 98.0833C185.275 97.9103 185.56 97.6509 185.785 97.3051C186.027 96.9419 186.2 96.4836 186.304 95.9302C186.425 95.3596 186.485 94.6765 186.485 93.881ZM204.568 83.6866V100.989H201.222L195.774 90.1716V100.989H192.48V83.6866H195.8L201.273 94.6332V83.6866H204.568ZM214.693 96.449C214.693 96.1378 214.667 95.8524 214.615 95.593C214.564 95.3336 214.443 95.1002 214.252 94.8926C214.079 94.6851 213.82 94.4776 213.474 94.2701C213.146 94.0453 212.713 93.8205 212.177 93.5956C211.537 93.3189 210.915 93.0336 210.309 92.7396C209.704 92.4283 209.159 92.0738 208.675 91.6761C208.191 91.261 207.811 90.7768 207.534 90.2234C207.257 89.6701 207.119 89.0216 207.119 88.278C207.119 87.5516 207.249 86.8945 207.508 86.3065C207.785 85.7185 208.165 85.217 208.649 84.802C209.134 84.3697 209.704 84.0411 210.361 83.8163C211.036 83.5742 211.779 83.4531 212.592 83.4531C213.699 83.4531 214.659 83.6866 215.471 84.1535C216.284 84.6031 216.915 85.2343 217.365 86.0471C217.815 86.8426 218.04 87.7592 218.04 88.7968H214.564C214.564 88.2952 214.494 87.8629 214.356 87.4998C214.218 87.1193 213.993 86.8253 213.682 86.6178C213.388 86.393 213.007 86.2806 212.54 86.2806C212.091 86.2806 211.719 86.3757 211.425 86.5659C211.148 86.7389 210.941 86.981 210.802 87.2922C210.664 87.5862 210.595 87.9234 210.595 88.3039C210.595 88.5806 210.664 88.8313 210.802 89.0562C210.941 89.281 211.131 89.4885 211.373 89.6787C211.615 89.8516 211.9 90.0246 212.229 90.1975C212.575 90.3531 212.947 90.5088 213.344 90.6644C214.14 90.9757 214.832 91.3216 215.42 91.702C216.025 92.0652 216.526 92.4802 216.924 92.9471C217.339 93.3968 217.65 93.9069 217.858 94.4776C218.065 95.0483 218.169 95.6968 218.169 96.4231C218.169 97.1321 218.04 97.7893 217.78 98.3945C217.538 98.9825 217.175 99.4927 216.691 99.925C216.224 100.34 215.653 100.66 214.979 100.885C214.321 101.11 213.578 101.222 212.748 101.222C211.952 101.222 211.191 101.11 210.465 100.885C209.756 100.66 209.134 100.314 208.597 99.8472C208.061 99.3802 207.638 98.7923 207.326 98.0833C207.015 97.3742 206.859 96.5269 206.859 95.5411H210.335C210.335 96.0599 210.387 96.5096 210.491 96.89C210.595 97.2532 210.75 97.5472 210.958 97.772C211.183 97.9795 211.451 98.1351 211.762 98.2389C212.073 98.3427 212.428 98.3945 212.826 98.3945C213.293 98.3945 213.656 98.3081 213.915 98.1351C214.192 97.9622 214.391 97.7287 214.512 97.4348C214.633 97.1408 214.693 96.8122 214.693 96.449ZM230.415 98.1092V100.989H222.919V98.1092H230.415ZM223.982 83.6866V100.989H220.506V83.6866H223.982ZM229.43 90.6904V93.4919H222.919V90.6904H229.43ZM230.415 83.6866V86.5659H222.919V83.6866H230.415ZM238.335 94.8926H234.807V92.0133H238.335C238.836 92.0133 239.243 91.9009 239.554 91.6761C239.865 91.4513 240.09 91.1486 240.228 90.7682C240.367 90.3704 240.436 89.9208 240.436 89.4193C240.436 88.9351 240.367 88.4768 240.228 88.0445C240.09 87.5949 239.865 87.2404 239.554 86.981C239.243 86.7043 238.836 86.5659 238.335 86.5659H235.922V100.989H232.446V83.6866H238.335C239.511 83.6866 240.514 83.9373 241.344 84.4388C242.174 84.9231 242.814 85.5975 243.263 86.4622C243.713 87.3095 243.938 88.2866 243.938 89.3934C243.938 90.5174 243.713 91.4945 243.263 92.3246C242.814 93.1374 242.174 93.7686 241.344 94.2182C240.514 94.6678 239.511 94.8926 238.335 94.8926Z" fill="white"/>
<path d="M104.595 135.799H101.068V132.92H104.595C105.097 132.92 105.503 132.807 105.815 132.582C106.126 132.358 106.351 132.055 106.489 131.674C106.627 131.277 106.697 130.827 106.697 130.326C106.697 129.841 106.627 129.383 106.489 128.951C106.351 128.501 106.126 128.147 105.815 127.887C105.503 127.611 105.097 127.472 104.595 127.472H102.183V141.895H98.707V124.593H104.595C105.771 124.593 106.774 124.844 107.604 125.345C108.435 125.829 109.074 126.504 109.524 127.368C109.974 128.216 110.198 129.193 110.198 130.3C110.198 131.424 109.974 132.401 109.524 133.231C109.074 134.044 108.435 134.675 107.604 135.124C106.774 135.574 105.771 135.799 104.595 135.799ZM112.562 124.593H118.087C119.246 124.593 120.232 124.792 121.044 125.189C121.875 125.587 122.506 126.175 122.938 126.953C123.37 127.732 123.587 128.691 123.587 129.833C123.587 130.767 123.457 131.562 123.197 132.219C122.955 132.876 122.601 133.43 122.134 133.879C121.667 134.312 121.105 134.658 120.448 134.917L119.384 135.539H114.897L114.871 132.66H118.009C118.476 132.66 118.866 132.556 119.177 132.349C119.488 132.141 119.722 131.847 119.877 131.467C120.033 131.069 120.111 130.62 120.111 130.118C120.111 129.565 120.041 129.098 119.903 128.717C119.765 128.32 119.549 128.017 119.255 127.809C118.961 127.585 118.572 127.472 118.087 127.472H116.038V141.895H112.562V124.593ZM120.396 141.895L117.231 134.191L120.889 134.165L124.131 141.739V141.895H120.396ZM138.163 131.908V134.787C138.163 136.015 138.007 137.087 137.696 138.004C137.402 138.903 136.978 139.664 136.425 140.286C135.889 140.892 135.24 141.35 134.479 141.661C133.718 141.973 132.88 142.128 131.963 142.128C131.029 142.128 130.182 141.973 129.421 141.661C128.66 141.35 128.003 140.892 127.45 140.286C126.896 139.664 126.464 138.903 126.153 138.004C125.859 137.087 125.712 136.015 125.712 134.787V131.908C125.712 130.645 125.859 129.547 126.153 128.614C126.447 127.68 126.87 126.901 127.424 126.279C127.977 125.639 128.634 125.164 129.395 124.852C130.156 124.524 131.003 124.359 131.937 124.359C132.854 124.359 133.693 124.524 134.453 124.852C135.214 125.164 135.871 125.639 136.425 126.279C136.978 126.901 137.402 127.68 137.696 128.614C138.007 129.547 138.163 130.645 138.163 131.908ZM134.687 134.787V131.882C134.687 131.052 134.626 130.352 134.505 129.781C134.402 129.193 134.229 128.717 133.986 128.354C133.744 127.974 133.45 127.697 133.105 127.524C132.776 127.351 132.387 127.265 131.937 127.265C131.47 127.265 131.064 127.351 130.718 127.524C130.389 127.697 130.104 127.974 129.862 128.354C129.637 128.717 129.464 129.193 129.343 129.781C129.222 130.352 129.162 131.052 129.162 131.882V134.787C129.162 135.583 129.222 136.266 129.343 136.836C129.464 137.39 129.646 137.848 129.888 138.211C130.13 138.557 130.415 138.817 130.744 138.99C131.09 139.162 131.496 139.249 131.963 139.249C132.396 139.249 132.785 139.162 133.13 138.99C133.476 138.817 133.762 138.557 133.986 138.211C134.229 137.848 134.402 137.39 134.505 136.836C134.626 136.266 134.687 135.583 134.687 134.787ZM145.195 141.895H142.134L142.16 139.015H145.195C146.042 139.015 146.7 138.868 147.167 138.574C147.633 138.263 147.962 137.788 148.152 137.148C148.342 136.491 148.438 135.635 148.438 134.58V131.882C148.438 131.086 148.386 130.412 148.282 129.859C148.178 129.305 148.005 128.856 147.763 128.51C147.521 128.164 147.192 127.905 146.777 127.732C146.362 127.559 145.852 127.472 145.247 127.472H142.082V124.593H145.247C146.25 124.593 147.158 124.757 147.971 125.086C148.783 125.414 149.484 125.89 150.072 126.512C150.66 127.135 151.109 127.905 151.421 128.821C151.732 129.72 151.888 130.749 151.888 131.908V134.58C151.888 135.756 151.732 136.802 151.421 137.718C151.109 138.618 150.66 139.379 150.072 140.001C149.484 140.606 148.775 141.073 147.945 141.402C147.132 141.73 146.215 141.895 145.195 141.895ZM144.157 124.593V141.895H140.682V124.593H144.157ZM162.209 124.593H165.659V136.473C165.659 137.805 165.417 138.894 164.933 139.742C164.449 140.572 163.775 141.177 162.91 141.558C162.062 141.938 161.085 142.128 159.979 142.128C158.872 142.128 157.886 141.938 157.021 141.558C156.157 141.177 155.482 140.572 154.998 139.742C154.531 138.894 154.298 137.805 154.298 136.473V124.593H157.774V136.473C157.774 137.234 157.852 137.814 158.007 138.211C158.18 138.609 158.431 138.886 158.759 139.041C159.088 139.18 159.494 139.249 159.979 139.249C160.48 139.249 160.887 139.18 161.198 139.041C161.526 138.886 161.777 138.609 161.95 138.211C162.123 137.814 162.209 137.234 162.209 136.473V124.593ZM171.792 124.593V141.895H168.316V124.593H171.792ZM180.378 124.593L174.775 133.179L171.351 137.459L170.677 133.983L172.907 130.274L176.15 124.593H180.378ZM176.383 141.895L172.596 133.957L175.138 131.7L180.482 141.895H176.383Z" fill="white"/>
<path d="M18.8965 211.744V197.814H25.148C26.2375 197.814 27.1022 198.004 27.742 198.385C28.3819 198.765 28.8401 199.241 29.1168 199.811C29.3935 200.382 29.5319 200.944 29.5319 201.497C29.5319 202.397 29.3416 203.088 28.9612 203.573C28.5807 204.057 28.1484 204.411 27.6642 204.636C28.0619 204.757 28.4597 204.956 28.8574 205.233C29.2552 205.509 29.5837 205.881 29.8431 206.348C30.1198 206.798 30.2582 207.377 30.2582 208.086C30.2582 209.124 29.8604 209.997 29.0649 210.706C28.2694 211.398 27.0762 211.744 25.4852 211.744H18.8965ZM20.4788 204.039H25.148C25.6322 204.039 26.0818 203.962 26.4969 203.806C26.9292 203.633 27.2751 203.365 27.5345 203.002C27.8112 202.639 27.9495 202.18 27.9495 201.627C27.9495 201.229 27.8631 200.858 27.6901 200.512C27.5172 200.166 27.2319 199.88 26.8341 199.656C26.4537 199.431 25.9435 199.318 25.3036 199.318H20.4788V204.039ZM20.4788 210.239H25.6668C26.6179 210.239 27.3529 210.04 27.8717 209.643C28.4078 209.245 28.6758 208.683 28.6758 207.956C28.6758 207.299 28.4164 206.72 27.8976 206.218C27.3961 205.717 26.592 205.466 25.4852 205.466H20.4788V210.239ZM37.1552 211.899C36.083 211.899 35.1492 211.666 34.3537 211.199C33.5582 210.715 32.9357 210.058 32.486 209.227C32.0537 208.397 31.8375 207.481 31.8375 206.478C31.8375 205.475 32.045 204.567 32.4601 203.754C32.8751 202.924 33.4717 202.267 34.2499 201.783C35.0454 201.299 35.9793 201.056 37.0515 201.056C38.1236 201.056 39.0488 201.299 39.827 201.783C40.6052 202.267 41.2018 202.924 41.6169 203.754C42.0492 204.567 42.2654 205.475 42.2654 206.478V207.126H33.4458C33.5323 207.732 33.7311 208.294 34.0424 208.812C34.3537 209.314 34.7774 209.72 35.3135 210.032C35.8496 210.326 36.4721 210.473 37.1812 210.473C37.9248 210.473 38.5473 210.308 39.0488 209.98C39.5503 209.651 39.9394 209.227 40.2161 208.709H41.9541C41.5909 209.66 41.0116 210.429 40.2161 211.017C39.4206 211.605 38.4003 211.899 37.1552 211.899ZM33.4717 205.648H40.6312C40.4755 204.749 40.0864 203.996 39.4639 203.391C38.8586 202.786 38.0545 202.483 37.0515 202.483C36.0311 202.483 35.2184 202.786 34.6131 203.391C34.0078 203.996 33.6274 204.749 33.4717 205.648ZM44.2039 211.744V201.212H45.7862V203.806C45.8381 203.633 45.9418 203.4 46.0975 203.106C46.2531 202.794 46.4866 202.483 46.7978 202.172C47.1091 201.861 47.4982 201.601 47.9651 201.394C48.4321 201.169 48.9941 201.056 49.6512 201.056H49.755V202.639H49.5734C48.7779 202.639 48.0948 202.855 47.5242 203.287C46.9535 203.702 46.5212 204.256 46.2272 204.947C45.9332 205.622 45.7862 206.348 45.7862 207.126V211.744H44.2039ZM51.3839 199.448V197.399H53.096V199.448H51.3839ZM51.4618 211.744V201.212H53.0441V211.744H51.4618ZM55.7744 211.744V197.01H57.3568V206.452L62.4151 201.212H64.62L60.3917 205.362L64.9312 211.744H63.0117L59.3282 206.452L57.3568 208.423V211.744H55.7744ZM70.2447 211.899C69.2244 211.899 68.3251 211.666 67.5469 211.199C66.786 210.715 66.198 210.058 65.783 209.227C65.368 208.397 65.1604 207.481 65.1604 206.478C65.1604 205.475 65.368 204.567 65.783 203.754C66.198 202.924 66.786 202.267 67.5469 201.783C68.3251 201.299 69.2244 201.056 70.2447 201.056C71.1093 201.056 71.8529 201.229 72.4755 201.575C73.0981 201.904 73.6082 202.353 74.006 202.924V201.212H75.5883V211.744H74.006V210.058C73.6082 210.628 73.0981 211.078 72.4755 211.406C71.8529 211.735 71.1093 211.899 70.2447 211.899ZM70.4522 210.473C71.2304 210.473 71.8875 210.291 72.4236 209.928C72.977 209.565 73.392 209.08 73.6687 208.475C73.9454 207.87 74.0838 207.204 74.0838 206.478C74.0838 205.752 73.9454 205.086 73.6687 204.48C73.392 203.875 72.977 203.391 72.4236 203.028C71.8875 202.665 71.2304 202.483 70.4522 202.483C69.674 202.483 68.9996 202.665 68.4289 203.028C67.8755 203.391 67.4518 203.875 67.1578 204.48C66.8638 205.086 66.7168 205.752 66.7168 206.478C66.7168 207.204 66.8638 207.87 67.1578 208.475C67.4518 209.08 67.8755 209.565 68.4289 209.928C68.9996 210.291 69.674 210.473 70.4522 210.473ZM78.3262 211.744V201.212H79.9085V202.872C80.2717 202.371 80.73 201.947 81.2834 201.601C81.8367 201.238 82.5371 201.056 83.3845 201.056C84.1108 201.056 84.7939 201.229 85.4337 201.575C86.0736 201.921 86.5924 202.431 86.9901 203.106C87.3879 203.78 87.5868 204.619 87.5868 205.622V211.744H86.0304V205.674C86.0304 204.705 85.7537 203.936 85.2003 203.365C84.6469 202.777 83.9379 202.483 83.0732 202.483C82.4852 202.483 81.9491 202.621 81.4649 202.898C80.998 203.158 80.6176 203.529 80.3236 204.014C80.0469 204.498 79.9085 205.051 79.9085 205.674V211.744H78.3262ZM97.8676 211.744V197.01H99.45V206.452L104.508 201.212H106.713L102.485 205.362L107.024 211.744H105.105L101.421 206.452L99.45 208.423V211.744H97.8676ZM112.338 211.899C111.318 211.899 110.418 211.666 109.64 211.199C108.879 210.715 108.291 210.058 107.876 209.227C107.461 208.397 107.254 207.481 107.254 206.478C107.254 205.475 107.461 204.567 107.876 203.754C108.291 202.924 108.879 202.267 109.64 201.783C110.418 201.299 111.318 201.056 112.338 201.056C113.203 201.056 113.946 201.229 114.569 201.575C115.191 201.904 115.701 202.353 116.099 202.924V201.212H117.681V211.744H116.099V210.058C115.701 210.628 115.191 211.078 114.569 211.406C113.946 211.735 113.203 211.899 112.338 211.899ZM112.545 210.473C113.324 210.473 113.981 210.291 114.517 209.928C115.07 209.565 115.485 209.08 115.762 208.475C116.039 207.87 116.177 207.204 116.177 206.478C116.177 205.752 116.039 205.086 115.762 204.48C115.485 203.875 115.07 203.391 114.517 203.028C113.981 202.665 113.324 202.483 112.545 202.483C111.767 202.483 111.093 202.665 110.522 203.028C109.969 203.391 109.545 203.875 109.251 204.48C108.957 205.086 108.81 205.752 108.81 206.478C108.81 207.204 108.957 207.87 109.251 208.475C109.545 209.08 109.969 209.565 110.522 209.928C111.093 210.291 111.767 210.473 112.545 210.473ZM120.419 211.744V201.212H122.002V202.82C122.227 202.405 122.598 202.008 123.117 201.627C123.636 201.247 124.328 201.056 125.192 201.056C125.884 201.056 126.524 201.247 127.112 201.627C127.717 201.99 128.193 202.509 128.539 203.183C128.677 202.941 128.893 202.656 129.187 202.327C129.498 201.982 129.896 201.688 130.38 201.445C130.882 201.186 131.47 201.056 132.144 201.056C132.819 201.056 133.45 201.238 134.038 201.601C134.626 201.947 135.101 202.449 135.465 203.106C135.845 203.746 136.035 204.506 136.035 205.388V211.744H134.453V205.44C134.453 204.558 134.202 203.849 133.701 203.313C133.216 202.76 132.603 202.483 131.859 202.483C131.081 202.483 130.406 202.742 129.836 203.261C129.282 203.78 129.006 204.515 129.006 205.466V211.744H127.449V205.44C127.449 204.558 127.198 203.849 126.697 203.313C126.195 202.76 125.573 202.483 124.829 202.483C124.051 202.483 123.385 202.742 122.832 203.261C122.278 203.78 122.002 204.515 122.002 205.466V211.744H120.419ZM138.602 199.448V197.399H140.314V199.448H138.602ZM138.68 211.744V201.212H140.262V211.744H138.68ZM155.847 216.076C154.532 216.076 153.46 215.79 152.63 215.22C151.817 214.649 151.255 213.914 150.944 213.015H152.708C152.915 213.534 153.279 213.931 153.797 214.208C154.316 214.502 154.973 214.649 155.769 214.649C156.979 214.649 157.861 214.364 158.415 213.793C158.968 213.222 159.245 212.401 159.245 211.329V209.876C158.847 210.429 158.337 210.879 157.714 211.225C157.092 211.571 156.348 211.744 155.484 211.744C154.463 211.744 153.564 211.51 152.786 211.043C152.025 210.576 151.437 209.937 151.022 209.124C150.607 208.311 150.399 207.403 150.399 206.4C150.399 205.397 150.607 204.489 151.022 203.676C151.437 202.864 152.025 202.224 152.786 201.757C153.564 201.29 154.463 201.056 155.484 201.056C156.348 201.056 157.092 201.221 157.714 201.549C158.337 201.878 158.847 202.327 159.245 202.898V201.212H160.827V211.432C160.827 212.937 160.395 214.087 159.53 214.882C158.666 215.678 157.438 216.076 155.847 216.076ZM155.691 210.317C156.469 210.317 157.126 210.144 157.663 209.798C158.199 209.435 158.605 208.959 158.882 208.371C159.176 207.766 159.323 207.109 159.323 206.4C159.323 205.674 159.176 205.017 158.882 204.429C158.605 203.841 158.199 203.374 157.663 203.028C157.126 202.665 156.469 202.483 155.691 202.483C154.913 202.483 154.238 202.665 153.668 203.028C153.114 203.374 152.691 203.841 152.397 204.429C152.103 205.017 151.956 205.674 151.956 206.4C151.956 207.109 152.103 207.766 152.397 208.371C152.691 208.959 153.114 209.435 153.668 209.798C154.238 210.144 154.913 210.317 155.691 210.317ZM168.001 211.899C166.981 211.899 166.081 211.666 165.303 211.199C164.542 210.715 163.954 210.058 163.539 209.227C163.124 208.397 162.917 207.481 162.917 206.478C162.917 205.475 163.124 204.567 163.539 203.754C163.954 202.924 164.542 202.267 165.303 201.783C166.081 201.299 166.981 201.056 168.001 201.056C168.865 201.056 169.609 201.229 170.232 201.575C170.854 201.904 171.364 202.353 171.762 202.924V201.212H173.344V211.744H171.762V210.058C171.364 210.628 170.854 211.078 170.232 211.406C169.609 211.735 168.865 211.899 168.001 211.899ZM168.208 210.473C168.987 210.473 169.644 210.291 170.18 209.928C170.733 209.565 171.148 209.08 171.425 208.475C171.702 207.87 171.84 207.204 171.84 206.478C171.84 205.752 171.702 205.086 171.425 204.48C171.148 203.875 170.733 203.391 170.18 203.028C169.644 202.665 168.987 202.483 168.208 202.483C167.43 202.483 166.756 202.665 166.185 203.028C165.632 203.391 165.208 203.875 164.914 204.48C164.62 205.086 164.473 205.752 164.473 206.478C164.473 207.204 164.62 207.87 164.914 208.475C165.208 209.08 165.632 209.565 166.185 209.928C166.756 210.291 167.43 210.473 168.208 210.473ZM176.082 211.744V201.212H177.665V202.82C177.889 202.405 178.261 202.008 178.78 201.627C179.299 201.247 179.991 201.056 180.855 201.056C181.547 201.056 182.187 201.247 182.775 201.627C183.38 201.99 183.856 202.509 184.202 203.183C184.34 202.941 184.556 202.656 184.85 202.327C185.161 201.982 185.559 201.688 186.043 201.445C186.545 201.186 187.133 201.056 187.807 201.056C188.482 201.056 189.113 201.238 189.701 201.601C190.289 201.947 190.764 202.449 191.128 203.106C191.508 203.746 191.698 204.506 191.698 205.388V211.744H190.116V205.44C190.116 204.558 189.865 203.849 189.364 203.313C188.879 202.76 188.265 202.483 187.522 202.483C186.744 202.483 186.069 202.742 185.499 203.261C184.945 203.78 184.668 204.515 184.668 205.466V211.744H183.112V205.44C183.112 204.558 182.861 203.849 182.36 203.313C181.858 202.76 181.236 202.483 180.492 202.483C179.714 202.483 179.048 202.742 178.495 203.261C177.941 203.78 177.665 204.515 177.665 205.466V211.744H176.082ZM199.686 211.899C198.804 211.899 198.052 211.735 197.43 211.406C196.807 211.078 196.306 210.628 195.925 210.058V211.744H194.343V197.01H195.925V202.924C196.306 202.353 196.807 201.904 197.43 201.575C198.052 201.229 198.804 201.056 199.686 201.056C200.707 201.056 201.597 201.299 202.358 201.783C203.119 202.267 203.707 202.924 204.122 203.754C204.555 204.567 204.771 205.475 204.771 206.478C204.771 207.481 204.555 208.397 204.122 209.227C203.707 210.058 203.119 210.715 202.358 211.199C201.597 211.666 200.707 211.899 199.686 211.899ZM199.479 210.473C200.257 210.473 200.923 210.291 201.476 209.928C202.03 209.565 202.453 209.08 202.747 208.475C203.041 207.87 203.188 207.204 203.188 206.478C203.188 205.752 203.041 205.086 202.747 204.48C202.453 203.875 202.03 203.391 201.476 203.028C200.923 202.665 200.257 202.483 199.479 202.483C198.701 202.483 198.035 202.665 197.482 203.028C196.945 203.391 196.53 203.875 196.236 204.48C195.96 205.086 195.821 205.752 195.821 206.478C195.821 207.204 195.96 207.87 196.236 208.475C196.53 209.08 196.945 209.565 197.482 209.928C198.035 210.291 198.701 210.473 199.479 210.473ZM211.296 211.899C210.276 211.899 209.376 211.666 208.598 211.199C207.837 210.715 207.249 210.058 206.834 209.227C206.419 208.397 206.212 207.481 206.212 206.478C206.212 205.475 206.419 204.567 206.834 203.754C207.249 202.924 207.837 202.267 208.598 201.783C209.376 201.299 210.276 201.056 211.296 201.056C212.16 201.056 212.904 201.229 213.527 201.575C214.149 201.904 214.659 202.353 215.057 202.924V201.212H216.639V211.744H215.057V210.058C214.659 210.628 214.149 211.078 213.527 211.406C212.904 211.735 212.16 211.899 211.296 211.899ZM211.503 210.473C212.282 210.473 212.939 210.291 213.475 209.928C214.028 209.565 214.443 209.08 214.72 208.475C214.997 207.87 215.135 207.204 215.135 206.478C215.135 205.752 214.997 205.086 214.72 204.48C214.443 203.875 214.028 203.391 213.475 203.028C212.939 202.665 212.282 202.483 211.503 202.483C210.725 202.483 210.051 202.665 209.48 203.028C208.927 203.391 208.503 203.875 208.209 204.48C207.915 205.086 207.768 205.752 207.768 206.478C207.768 207.204 207.915 207.87 208.209 208.475C208.503 209.08 208.927 209.565 209.48 209.928C210.051 210.291 210.725 210.473 211.503 210.473ZM219.377 211.744V201.212H220.96V203.806C221.012 203.633 221.115 203.4 221.271 203.106C221.427 202.794 221.66 202.483 221.971 202.172C222.283 201.861 222.672 201.601 223.139 201.394C223.606 201.169 224.168 201.056 224.825 201.056H224.928V202.639H224.747C223.951 202.639 223.268 202.855 222.698 203.287C222.127 203.702 221.695 204.256 221.401 204.947C221.107 205.622 220.96 206.348 220.96 207.126V211.744H219.377ZM230.797 211.899C229.777 211.899 228.878 211.666 228.1 211.199C227.339 210.715 226.751 210.058 226.336 209.227C225.921 208.397 225.713 207.481 225.713 206.478C225.713 205.475 225.921 204.567 226.336 203.754C226.751 202.924 227.339 202.267 228.1 201.783C228.878 201.299 229.777 201.056 230.797 201.056C231.662 201.056 232.406 201.229 233.028 201.575C233.651 201.904 234.161 202.353 234.559 202.924V201.212H236.141V211.744H234.559V210.058C234.161 210.628 233.651 211.078 233.028 211.406C232.406 211.735 231.662 211.899 230.797 211.899ZM231.005 210.473C231.783 210.473 232.44 210.291 232.976 209.928C233.53 209.565 233.945 209.08 234.221 208.475C234.498 207.87 234.636 207.204 234.636 206.478C234.636 205.752 234.498 205.086 234.221 204.48C233.945 203.875 233.53 203.391 232.976 203.028C232.44 202.665 231.783 202.483 231.005 202.483C230.227 202.483 229.552 202.665 228.982 203.028C228.428 203.391 228.004 203.875 227.71 204.48C227.416 205.086 227.27 205.752 227.27 206.478C227.27 207.204 227.416 207.87 227.71 208.475C228.004 209.08 228.428 209.565 228.982 209.928C229.552 210.291 230.227 210.473 231.005 210.473ZM238.879 211.744V201.212H240.461V202.872C240.824 202.371 241.283 201.947 241.836 201.601C242.389 201.238 243.09 201.056 243.937 201.056C244.663 201.056 245.347 201.229 245.986 201.575C246.626 201.921 247.145 202.431 247.543 203.106C247.941 203.78 248.139 204.619 248.139 205.622V211.744H246.583V205.674C246.583 204.705 246.306 203.936 245.753 203.365C245.2 202.777 244.491 202.483 243.626 202.483C243.038 202.483 242.502 202.621 242.018 202.898C241.551 203.158 241.17 203.529 240.876 204.014C240.6 204.498 240.461 205.051 240.461 205.674V211.744H238.879Z" fill="#3B405D"/>
<path d="M18.5591 247.125V236.593H20.1414V238.201C20.3662 237.786 20.738 237.388 21.2568 237.008C21.7756 236.627 22.4674 236.437 23.332 236.437C24.0238 236.437 24.6636 236.627 25.2516 237.008C25.8569 237.371 26.3324 237.89 26.6783 238.564C26.8166 238.322 27.0328 238.037 27.3268 237.708C27.6381 237.362 28.0358 237.068 28.52 236.826C29.0215 236.567 29.6095 236.437 30.2839 236.437C30.9584 236.437 31.5896 236.619 32.1776 236.982C32.7655 237.328 33.2411 237.829 33.6042 238.487C33.9847 239.126 34.1749 239.887 34.1749 240.769V247.125H32.5926V240.821C32.5926 239.939 32.3418 239.23 31.8403 238.694C31.3561 238.141 30.7422 237.864 29.9986 237.864C29.2204 237.864 28.546 238.123 27.9753 238.642C27.4219 239.161 27.1452 239.896 27.1452 240.847V247.125H25.5888V240.821C25.5888 239.939 25.3381 239.23 24.8365 238.694C24.335 238.141 23.7125 237.864 22.9689 237.864C22.1907 237.864 21.5249 238.123 20.9715 238.642C20.4181 239.161 20.1414 239.896 20.1414 240.847V247.125H18.5591ZM41.4887 247.28C40.4166 247.28 39.4827 247.047 38.6872 246.58C37.8917 246.096 37.2692 245.438 36.8196 244.608C36.3872 243.778 36.1711 242.862 36.1711 241.859C36.1711 240.856 36.3786 239.948 36.7936 239.135C37.2087 238.305 37.8053 237.648 38.5835 237.164C39.379 236.679 40.3128 236.437 41.385 236.437C42.4572 236.437 43.3824 236.679 44.1606 237.164C44.9388 237.648 45.5354 238.305 45.9504 239.135C46.3827 239.948 46.5989 240.856 46.5989 241.859V242.507H37.7793C37.8658 243.112 38.0647 243.674 38.376 244.193C38.6872 244.695 39.1109 245.101 39.647 245.412C40.1831 245.706 40.8057 245.853 41.5147 245.853C42.2583 245.853 42.8809 245.689 43.3824 245.361C43.8839 245.032 44.273 244.608 44.5497 244.09H46.2876C45.9245 245.041 45.3451 245.81 44.5497 246.398C43.7542 246.986 42.7339 247.28 41.4887 247.28ZM37.8053 241.029H44.9647C44.8091 240.129 44.42 239.377 43.7974 238.772C43.1921 238.167 42.388 237.864 41.385 237.864C40.3647 237.864 39.5519 238.167 38.9466 238.772C38.3414 239.377 37.9609 240.129 37.8053 241.029ZM48.5374 247.125V236.593H50.1197V238.253C50.4829 237.752 50.9412 237.328 51.4945 236.982C52.0479 236.619 52.7483 236.437 53.5957 236.437C54.322 236.437 55.0051 236.61 55.6449 236.956C56.2848 237.302 56.8036 237.812 57.2013 238.487C57.5991 239.161 57.7979 240 57.7979 241.003V247.125H56.2416V241.055C56.2416 240.086 55.9649 239.317 55.4115 238.746C54.8581 238.158 54.1491 237.864 53.2844 237.864C52.6964 237.864 52.1603 238.002 51.6761 238.279C51.2092 238.538 50.8288 238.91 50.5348 239.394C50.2581 239.879 50.1197 240.432 50.1197 241.055V247.125H48.5374ZM65.2434 251.456C63.9292 251.456 62.857 251.171 62.0269 250.6C61.2141 250.03 60.6521 249.295 60.3408 248.396H62.1047C62.3122 248.914 62.6754 249.312 63.1942 249.589C63.713 249.883 64.3701 250.03 65.1656 250.03C66.3762 250.03 67.2581 249.744 67.8115 249.174C68.3649 248.603 68.6416 247.782 68.6416 246.709V245.257C68.2438 245.81 67.7337 246.26 67.1111 246.606C66.4886 246.952 65.745 247.125 64.8803 247.125C63.86 247.125 62.9607 246.891 62.1825 246.424C61.4216 245.957 60.8337 245.317 60.4186 244.505C60.0036 243.692 59.7961 242.784 59.7961 241.781C59.7961 240.778 60.0036 239.87 60.4186 239.057C60.8337 238.244 61.4216 237.605 62.1825 237.138C62.9607 236.671 63.86 236.437 64.8803 236.437C65.745 236.437 66.4886 236.602 67.1111 236.93C67.7337 237.259 68.2438 237.708 68.6416 238.279V236.593H70.2239V246.813C70.2239 248.318 69.7916 249.468 68.9269 250.263C68.0623 251.059 66.8344 251.456 65.2434 251.456ZM65.0878 245.698C65.866 245.698 66.5232 245.525 67.0592 245.179C67.5953 244.816 68.0017 244.34 68.2784 243.752C68.5724 243.147 68.7194 242.49 68.7194 241.781C68.7194 241.055 68.5724 240.397 68.2784 239.809C68.0017 239.221 67.5953 238.755 67.0592 238.409C66.5232 238.046 65.866 237.864 65.0878 237.864C64.3096 237.864 63.6352 238.046 63.0645 238.409C62.5111 238.755 62.0874 239.221 61.7934 239.809C61.4994 240.397 61.3525 241.055 61.3525 241.781C61.3525 242.49 61.4994 243.147 61.7934 243.752C62.0874 244.34 62.5111 244.816 63.0645 245.179C63.6352 245.525 64.3096 245.698 65.0878 245.698ZM77.631 247.28C76.5588 247.28 75.625 247.047 74.8295 246.58C74.034 246.096 73.4114 245.438 72.9618 244.608C72.5295 243.778 72.3133 242.862 72.3133 241.859C72.3133 240.856 72.5208 239.948 72.9359 239.135C73.3509 238.305 73.9475 237.648 74.7257 237.164C75.5212 236.679 76.4551 236.437 77.5273 236.437C78.5994 236.437 79.5246 236.679 80.3028 237.164C81.081 237.648 81.6776 238.305 82.0927 239.135C82.525 239.948 82.7412 240.856 82.7412 241.859V242.507H73.9216C74.0081 243.112 74.2069 243.674 74.5182 244.193C74.8295 244.695 75.2532 245.101 75.7893 245.412C76.3254 245.706 76.9479 245.853 77.6569 245.853C78.4006 245.853 79.0231 245.689 79.5246 245.361C80.0261 245.032 80.4152 244.608 80.6919 244.09H82.4299C82.0667 245.041 81.4874 245.81 80.6919 246.398C79.8964 246.986 78.8761 247.28 77.631 247.28ZM73.9475 241.029H81.107C80.9513 240.129 80.5622 239.377 79.9397 238.772C79.3344 238.167 78.5303 237.864 77.5273 237.864C76.5069 237.864 75.6942 238.167 75.0889 238.772C74.4836 239.377 74.1032 240.129 73.9475 241.029ZM84.6797 247.125V236.593H86.262V238.253C86.6252 237.752 87.0834 237.328 87.6368 236.982C88.1902 236.619 88.8906 236.437 89.7379 236.437C90.4643 236.437 91.1473 236.61 91.7872 236.956C92.4271 237.302 92.9459 237.812 93.3436 238.487C93.7413 239.161 93.9402 240 93.9402 241.003V247.125H92.3838V241.055C92.3838 240.086 92.1071 239.317 91.5537 238.746C91.0004 238.158 90.2913 237.864 89.4267 237.864C88.8387 237.864 88.3026 238.002 87.8184 238.279C87.3515 238.538 86.971 238.91 86.677 239.394C86.4003 239.879 86.262 240.432 86.262 241.055V247.125H84.6797ZM101.023 247.28C100.002 247.28 99.103 247.047 98.3248 246.58C97.5639 246.096 96.9759 245.438 96.5609 244.608C96.1458 243.778 95.9383 242.862 95.9383 241.859C95.9383 240.856 96.1458 239.948 96.5609 239.135C96.9759 238.305 97.5639 237.648 98.3248 237.164C99.103 236.679 100.002 236.437 101.023 236.437C101.887 236.437 102.631 236.61 103.253 236.956C103.876 237.285 104.386 237.734 104.784 238.305V236.593H106.366V247.125H104.784V245.438C104.386 246.009 103.876 246.459 103.253 246.787C102.631 247.116 101.887 247.28 101.023 247.28ZM101.23 245.853C102.008 245.853 102.665 245.672 103.202 245.309C103.755 244.946 104.17 244.461 104.447 243.856C104.723 243.251 104.862 242.585 104.862 241.859C104.862 241.132 104.723 240.467 104.447 239.861C104.17 239.256 103.755 238.772 103.202 238.409C102.665 238.046 102.008 237.864 101.23 237.864C100.452 237.864 99.7774 238.046 99.2068 238.409C98.6534 238.772 98.2297 239.256 97.9357 239.861C97.6417 240.467 97.4947 241.132 97.4947 241.859C97.4947 242.585 97.6417 243.251 97.9357 243.856C98.2297 244.461 98.6534 244.946 99.2068 245.309C99.7774 245.672 100.452 245.853 101.23 245.853ZM109.026 234.829V232.78H110.738V234.829H109.026ZM109.104 247.125V236.593H110.686V247.125H109.104ZM125.964 251.301V236.593H127.546V238.279C127.926 237.708 128.428 237.259 129.05 236.93C129.673 236.602 130.425 236.437 131.307 236.437C132.327 236.437 133.218 236.679 133.979 237.164C134.74 237.648 135.328 238.305 135.743 239.135C136.175 239.948 136.391 240.856 136.391 241.859C136.391 242.862 136.175 243.778 135.743 244.608C135.328 245.438 134.74 246.096 133.979 246.58C133.218 247.047 132.327 247.28 131.307 247.28C130.425 247.28 129.673 247.116 129.05 246.787C128.428 246.441 127.926 245.983 127.546 245.412V251.301H125.964ZM131.1 245.853C131.878 245.853 132.544 245.672 133.097 245.309C133.65 244.946 134.074 244.461 134.368 243.856C134.662 243.251 134.809 242.585 134.809 241.859C134.809 241.132 134.662 240.467 134.368 239.861C134.074 239.256 133.65 238.772 133.097 238.409C132.544 238.046 131.878 237.864 131.1 237.864C130.321 237.864 129.656 238.046 129.102 238.409C128.566 238.772 128.151 239.256 127.857 239.861C127.58 240.467 127.442 241.132 127.442 241.859C127.442 242.585 127.58 243.251 127.857 243.856C128.151 244.461 128.566 244.946 129.102 245.309C129.656 245.672 130.321 245.853 131.1 245.853ZM138.481 247.125V236.593H140.063V239.187C140.115 239.014 140.219 238.78 140.374 238.487C140.53 238.175 140.764 237.864 141.075 237.553C141.386 237.241 141.775 236.982 142.242 236.774C142.709 236.55 143.271 236.437 143.928 236.437H144.032V238.02H143.85C143.055 238.02 142.372 238.236 141.801 238.668C141.23 239.083 140.798 239.637 140.504 240.328C140.21 241.003 140.063 241.729 140.063 242.507V247.125H138.481ZM150.03 247.28C148.958 247.28 148.024 247.047 147.229 246.58C146.451 246.096 145.854 245.438 145.439 244.608C145.024 243.778 144.817 242.862 144.817 241.859C144.817 240.856 145.024 239.948 145.439 239.135C145.854 238.305 146.451 237.648 147.229 237.164C148.024 236.679 148.958 236.437 150.03 236.437C151.103 236.437 152.028 236.679 152.806 237.164C153.584 237.648 154.181 238.305 154.596 239.135C155.028 239.948 155.244 240.856 155.244 241.859C155.244 242.862 155.028 243.778 154.596 244.608C154.181 245.438 153.584 246.096 152.806 246.58C152.028 247.047 151.103 247.28 150.03 247.28ZM150.03 245.853C150.809 245.853 151.466 245.672 152.002 245.309C152.555 244.946 152.97 244.461 153.247 243.856C153.524 243.251 153.662 242.585 153.662 241.859C153.662 241.132 153.524 240.467 153.247 239.861C152.97 239.256 152.555 238.772 152.002 238.409C151.466 238.046 150.809 237.864 150.03 237.864C149.252 237.864 148.586 238.046 148.033 238.409C147.497 238.772 147.082 239.256 146.788 239.861C146.511 240.467 146.373 241.132 146.373 241.859C146.373 242.585 146.511 243.251 146.788 243.856C147.082 244.461 147.497 244.946 148.033 245.309C148.586 245.672 149.252 245.853 150.03 245.853ZM161.766 247.28C160.746 247.28 159.846 247.047 159.068 246.58C158.307 246.096 157.719 245.438 157.304 244.608C156.889 243.778 156.682 242.862 156.682 241.859C156.682 240.856 156.889 239.948 157.304 239.135C157.719 238.305 158.307 237.648 159.068 237.164C159.846 236.679 160.746 236.437 161.766 236.437C162.631 236.437 163.374 236.61 163.997 236.956C164.619 237.285 165.129 237.734 165.527 238.305V232.391H167.11V247.125H165.527V245.438C165.129 246.009 164.619 246.459 163.997 246.787C163.374 247.116 162.631 247.28 161.766 247.28ZM161.973 245.853C162.752 245.853 163.409 245.672 163.945 245.309C164.498 244.946 164.913 244.461 165.19 243.856C165.467 243.251 165.605 242.585 165.605 241.859C165.605 241.132 165.467 240.467 165.19 239.861C164.913 239.256 164.498 238.772 163.945 238.409C163.409 238.046 162.752 237.864 161.973 237.864C161.195 237.864 160.521 238.046 159.95 238.409C159.397 238.772 158.973 239.256 158.679 239.861C158.385 240.467 158.238 241.132 158.238 241.859C158.238 242.585 158.385 243.251 158.679 243.856C158.973 244.461 159.397 244.946 159.95 245.309C160.521 245.672 161.195 245.853 161.973 245.853ZM173.946 247.28C173.22 247.28 172.537 247.116 171.897 246.787C171.257 246.441 170.738 245.931 170.34 245.257C169.943 244.565 169.744 243.726 169.744 242.741V236.593H171.3V242.689C171.3 243.64 171.577 244.409 172.13 244.997C172.701 245.568 173.41 245.853 174.257 245.853C174.845 245.853 175.373 245.724 175.84 245.464C176.324 245.188 176.704 244.816 176.981 244.349C177.275 243.865 177.422 243.303 177.422 242.663V236.593H179.004V247.125H177.422V245.49C177.059 245.992 176.6 246.415 176.047 246.761C175.494 247.107 174.793 247.28 173.946 247.28ZM181.755 247.125V232.391H183.337V241.833L188.395 236.593H190.6L186.372 240.743L190.911 247.125H188.992L185.308 241.833L183.337 243.804V247.125H181.755ZM205.531 251.301L207.45 246.969L203.144 236.593H204.908L208.28 245.231L211.73 236.593H213.468L207.243 251.301H205.531ZM219.122 247.28C218.102 247.28 217.202 247.047 216.424 246.58C215.663 246.096 215.075 245.438 214.66 244.608C214.245 243.778 214.038 242.862 214.038 241.859C214.038 240.856 214.245 239.948 214.66 239.135C215.075 238.305 215.663 237.648 216.424 237.164C217.202 236.679 218.102 236.437 219.122 236.437C219.987 236.437 220.73 236.61 221.353 236.956C221.975 237.285 222.485 237.734 222.883 238.305V236.593H224.466V247.125H222.883V245.438C222.485 246.009 221.975 246.459 221.353 246.787C220.73 247.116 219.987 247.28 219.122 247.28ZM219.329 245.853C220.108 245.853 220.765 245.672 221.301 245.309C221.854 244.946 222.269 244.461 222.546 243.856C222.823 243.251 222.961 242.585 222.961 241.859C222.961 241.132 222.823 240.467 222.546 239.861C222.269 239.256 221.854 238.772 221.301 238.409C220.765 238.046 220.108 237.864 219.329 237.864C218.551 237.864 217.877 238.046 217.306 238.409C216.753 238.772 216.329 239.256 216.035 239.861C215.741 240.467 215.594 241.132 215.594 241.859C215.594 242.585 215.741 243.251 216.035 243.856C216.329 244.461 216.753 244.946 217.306 245.309C217.877 245.672 218.551 245.853 219.329 245.853ZM227.203 247.125V236.593H228.786V238.253C229.149 237.752 229.607 237.328 230.161 236.982C230.714 236.619 231.414 236.437 232.262 236.437C232.988 236.437 233.671 236.61 234.311 236.956C234.951 237.302 235.47 237.812 235.867 238.487C236.265 239.161 236.464 240 236.464 241.003V247.125H234.908V241.055C234.908 240.086 234.631 239.317 234.078 238.746C233.524 238.158 232.815 237.864 231.95 237.864C231.362 237.864 230.826 238.002 230.342 238.279C229.875 238.538 229.495 238.91 229.201 239.394C228.924 239.879 228.786 240.432 228.786 241.055V247.125H227.203ZM243.91 251.456C242.595 251.456 241.523 251.171 240.693 250.6C239.88 250.03 239.318 249.295 239.007 248.396H240.771C240.978 248.914 241.341 249.312 241.86 249.589C242.379 249.883 243.036 250.03 243.832 250.03C245.042 250.03 245.924 249.744 246.478 249.174C247.031 248.603 247.308 247.782 247.308 246.709V245.257C246.91 245.81 246.4 246.26 245.777 246.606C245.155 246.952 244.411 247.125 243.546 247.125C242.526 247.125 241.627 246.891 240.849 246.424C240.088 245.957 239.5 245.317 239.085 244.505C238.67 243.692 238.462 242.784 238.462 241.781C238.462 240.778 238.67 239.87 239.085 239.057C239.5 238.244 240.088 237.605 240.849 237.138C241.627 236.671 242.526 236.437 243.546 236.437C244.411 236.437 245.155 236.602 245.777 236.93C246.4 237.259 246.91 237.708 247.308 238.279V236.593H248.89V246.813C248.89 248.318 248.458 249.468 247.593 250.263C246.728 251.059 245.5 251.456 243.91 251.456ZM243.754 245.698C244.532 245.698 245.189 245.525 245.725 245.179C246.261 244.816 246.668 244.34 246.944 243.752C247.238 243.147 247.385 242.49 247.385 241.781C247.385 241.055 247.238 240.397 246.944 239.809C246.668 239.221 246.261 238.755 245.725 238.409C245.189 238.046 244.532 237.864 243.754 237.864C242.976 237.864 242.301 238.046 241.731 238.409C241.177 238.755 240.753 239.221 240.459 239.809C240.166 240.397 240.019 241.055 240.019 241.781C240.019 242.49 240.166 243.147 240.459 243.752C240.753 244.34 241.177 244.816 241.731 245.179C242.301 245.525 242.976 245.698 243.754 245.698Z" fill="#3B405D"/>
<path d="M18.4814 270.211V268.162H20.1935V270.211H18.4814ZM18.5593 282.506V271.975H20.1416V282.506H18.5593ZM22.8719 282.506V271.975H24.4543V273.635C24.8174 273.133 25.2757 272.71 25.8291 272.364C26.3825 272.001 27.0828 271.819 27.9302 271.819C28.6565 271.819 29.3396 271.992 29.9795 272.338C30.6193 272.684 31.1381 273.194 31.5359 273.868C31.9336 274.543 32.1325 275.382 32.1325 276.385V282.506H30.5761V276.436C30.5761 275.468 30.2994 274.698 29.746 274.128C29.1926 273.54 28.4836 273.246 27.6189 273.246C27.031 273.246 26.4949 273.384 26.0107 273.661C25.5437 273.92 25.1633 274.292 24.8693 274.776C24.5926 275.26 24.4543 275.814 24.4543 276.436V282.506H22.8719ZM39.578 286.838C38.2637 286.838 37.1915 286.553 36.3614 285.982C35.5487 285.412 34.9866 284.677 34.6753 283.777H36.4393C36.6468 284.296 37.0099 284.694 37.5287 284.971C38.0475 285.265 38.7047 285.412 39.5002 285.412C40.7107 285.412 41.5927 285.126 42.146 284.556C42.6994 283.985 42.9761 283.163 42.9761 282.091V280.639C42.5784 281.192 42.0682 281.642 41.4457 281.988C40.8231 282.333 40.0795 282.506 39.2148 282.506C38.1945 282.506 37.2953 282.273 36.5171 281.806C35.7562 281.339 35.1682 280.699 34.7532 279.886C34.3381 279.074 34.1306 278.166 34.1306 277.163C34.1306 276.16 34.3381 275.252 34.7532 274.439C35.1682 273.626 35.7562 272.986 36.5171 272.519C37.2953 272.053 38.1945 271.819 39.2148 271.819C40.0795 271.819 40.8231 271.983 41.4457 272.312C42.0682 272.641 42.5784 273.09 42.9761 273.661V271.975H44.5585V282.195C44.5585 283.7 44.1261 284.85 43.2615 285.645C42.3968 286.441 41.169 286.838 39.578 286.838ZM39.4223 281.08C40.2005 281.08 40.8577 280.907 41.3938 280.561C41.9299 280.198 42.3363 279.722 42.613 279.134C42.9069 278.529 43.0539 277.872 43.0539 277.163C43.0539 276.436 42.9069 275.779 42.613 275.191C42.3363 274.603 41.9299 274.136 41.3938 273.791C40.8577 273.427 40.2005 273.246 39.4223 273.246C38.6442 273.246 37.9697 273.427 37.399 273.791C36.8456 274.136 36.422 274.603 36.128 275.191C35.834 275.779 35.687 276.436 35.687 277.163C35.687 277.872 35.834 278.529 36.128 279.134C36.422 279.722 36.8456 280.198 37.399 280.561C37.9697 280.907 38.6442 281.08 39.4223 281.08ZM47.2185 270.211V268.162H48.9306V270.211H47.2185ZM47.2964 282.506V271.975H48.8787V282.506H47.2964ZM51.609 282.506V271.975H53.1914V273.635C53.5545 273.133 54.0128 272.71 54.5662 272.364C55.1196 272.001 55.8199 271.819 56.6673 271.819C57.3936 271.819 58.0767 271.992 58.7166 272.338C59.3564 272.684 59.8752 273.194 60.273 273.868C60.6707 274.543 60.8696 275.382 60.8696 276.385V282.506H59.3132V276.436C59.3132 275.468 59.0365 274.698 58.4831 274.128C57.9297 273.54 57.2207 273.246 56.356 273.246C55.7681 273.246 55.232 273.384 54.7478 273.661C54.2808 273.92 53.9004 274.292 53.6064 274.776C53.3297 275.26 53.1914 275.814 53.1914 276.436V282.506H51.609ZM72.4329 282.662C71.4126 282.662 70.5133 282.429 69.7351 281.962C68.9742 281.477 68.3863 280.82 67.9712 279.99C67.5562 279.16 67.3487 278.244 67.3487 277.241C67.3487 276.238 67.5562 275.33 67.9712 274.517C68.3863 273.687 68.9742 273.03 69.7351 272.545C70.5133 272.061 71.4126 271.819 72.4329 271.819C73.2976 271.819 74.0412 271.992 74.6637 272.338C75.2863 272.666 75.7964 273.116 76.1942 273.687V267.772H77.7765V282.506H76.1942V280.82C75.7964 281.391 75.2863 281.841 74.6637 282.169C74.0412 282.498 73.2976 282.662 72.4329 282.662ZM72.6404 281.235C73.4186 281.235 74.0758 281.054 74.6118 280.691C75.1652 280.327 75.5803 279.843 75.857 279.238C76.1337 278.633 76.272 277.967 76.272 277.241C76.272 276.514 76.1337 275.848 75.857 275.243C75.5803 274.638 75.1652 274.154 74.6118 273.791C74.0758 273.427 73.4186 273.246 72.6404 273.246C71.8622 273.246 71.1878 273.427 70.6171 273.791C70.0637 274.154 69.64 274.638 69.346 275.243C69.0521 275.848 68.9051 276.514 68.9051 277.241C68.9051 277.967 69.0521 278.633 69.346 279.238C69.64 279.843 70.0637 280.327 70.6171 280.691C71.1878 281.054 71.8622 281.235 72.6404 281.235ZM80.4366 270.211V268.162H82.1486V270.211H80.4366ZM80.5144 282.506V271.975H82.0968V282.506H80.5144ZM90.1707 282.662C89.2888 282.662 88.5365 282.498 87.9139 282.169C87.2914 281.841 86.7899 281.391 86.4094 280.82V282.506H84.8271V267.772H86.4094V273.687C86.7899 273.116 87.2914 272.666 87.9139 272.338C88.5365 271.992 89.2888 271.819 90.1707 271.819C91.191 271.819 92.0816 272.061 92.8425 272.545C93.6034 273.03 94.1914 273.687 94.6065 274.517C95.0388 275.33 95.255 276.238 95.255 277.241C95.255 278.244 95.0388 279.16 94.6065 279.99C94.1914 280.82 93.6034 281.477 92.8425 281.962C92.0816 282.429 91.191 282.662 90.1707 282.662ZM89.9632 281.235C90.7414 281.235 91.4072 281.054 91.9606 280.691C92.514 280.327 92.9376 279.843 93.2316 279.238C93.5256 278.633 93.6726 277.967 93.6726 277.241C93.6726 276.514 93.5256 275.848 93.2316 275.243C92.9376 274.638 92.514 274.154 91.9606 273.791C91.4072 273.427 90.7414 273.246 89.9632 273.246C89.185 273.246 88.5192 273.427 87.9658 273.791C87.4297 274.154 87.0147 274.638 86.7207 275.243C86.444 275.848 86.3057 276.514 86.3057 277.241C86.3057 277.967 86.444 278.633 86.7207 279.238C87.0147 279.843 87.4297 280.327 87.9658 280.691C88.5192 281.054 89.185 281.235 89.9632 281.235ZM101.443 282.662C100.717 282.662 100.033 282.498 99.3936 282.169C98.7538 281.823 98.235 281.313 97.8372 280.639C97.4395 279.947 97.2406 279.108 97.2406 278.122V271.975H98.797V278.071C98.797 279.022 99.0737 279.791 99.6271 280.379C100.198 280.95 100.907 281.235 101.754 281.235C102.342 281.235 102.87 281.106 103.336 280.846C103.821 280.569 104.201 280.198 104.478 279.731C104.772 279.247 104.919 278.685 104.919 278.045V271.975H106.501V282.506H104.919V280.872C104.556 281.374 104.097 281.797 103.544 282.143C102.991 282.489 102.29 282.662 101.443 282.662ZM113.687 282.662C112.667 282.662 111.768 282.429 110.99 281.962C110.229 281.477 109.641 280.82 109.226 279.99C108.811 279.16 108.603 278.244 108.603 277.241C108.603 276.238 108.811 275.33 109.226 274.517C109.641 273.687 110.229 273.03 110.99 272.545C111.768 272.061 112.667 271.819 113.687 271.819C114.552 271.819 115.296 271.992 115.918 272.338C116.541 272.666 117.051 273.116 117.449 273.687V271.975H119.031V282.506H117.449V280.82C117.051 281.391 116.541 281.841 115.918 282.169C115.296 282.498 114.552 282.662 113.687 282.662ZM113.895 281.235C114.673 281.235 115.33 281.054 115.866 280.691C116.42 280.327 116.835 279.843 117.111 279.238C117.388 278.633 117.526 277.967 117.526 277.241C117.526 276.514 117.388 275.848 117.111 275.243C116.835 274.638 116.42 274.154 115.866 273.791C115.33 273.427 114.673 273.246 113.895 273.246C113.117 273.246 112.442 273.427 111.871 273.791C111.318 274.154 110.894 274.638 110.6 275.243C110.306 275.848 110.159 276.514 110.159 277.241C110.159 277.967 110.306 278.633 110.6 279.238C110.894 279.843 111.318 280.327 111.871 280.691C112.442 281.054 113.117 281.235 113.895 281.235ZM122.91 282.506V273.375H120.757V271.975H122.91V268.213H124.467V271.975H126.905V273.375H124.467V282.506H122.91Z" fill="#3B405D"/>
</svg>
