<svg width="308" height="388" viewBox="0 0 308 388" fill="none" xmlns="http://www.w3.org/2000/svg">
<path d="M153.829 387.595V255.279" stroke="#5FD8C3" stroke-width="2" stroke-miterlimit="10" stroke-linejoin="round" stroke-dasharray="16 6"/>
<path fill-rule="evenodd" clip-rule="evenodd" d="M159.313 255.279L153.829 240.211L148.344 255.279H159.313Z" fill="#5FD8C3" stroke="#5FD8C3" stroke-width="2" stroke-miterlimit="10"/>
<path fill-rule="evenodd" clip-rule="evenodd" d="M56.9268 122.545H250.73C265.69 122.545 280.036 128.488 290.615 139.066C301.193 149.644 307.136 163.992 307.136 178.951C307.136 193.911 301.193 208.258 290.615 218.836C280.036 229.415 265.69 235.357 250.73 235.357H56.9268C41.9671 235.357 27.62 229.415 17.0419 218.836C6.46388 208.258 0.520996 193.911 0.520996 178.951C0.520996 163.992 6.46388 149.644 17.0419 139.066C27.62 128.488 41.9671 122.545 56.9268 122.545Z" fill="#5FD8C3"/>
<path d="M22.415 174.971H19.1984V172.351H22.415C22.8646 172.351 23.2278 172.256 23.5045 172.065C23.7812 171.858 23.98 171.581 24.1011 171.235C24.2394 170.872 24.3086 170.466 24.3086 170.016C24.3086 169.567 24.2394 169.143 24.1011 168.745C23.98 168.347 23.7812 168.028 23.5045 167.785C23.2278 167.543 22.8646 167.422 22.415 167.422H20.2101V180.522H17.0454V164.802H22.415C23.4699 164.802 24.3778 165.027 25.1387 165.477C25.8996 165.909 26.4789 166.523 26.8767 167.318C27.2917 168.097 27.4992 168.987 27.4992 169.99C27.4992 171.011 27.2917 171.893 26.8767 172.636C26.4789 173.38 25.8996 173.959 25.1387 174.374C24.3778 174.772 23.4699 174.971 22.415 174.971ZM38.6485 177.902V180.522H31.8003V177.902H38.6485ZM32.7861 164.802V180.522H29.6214V164.802H32.7861ZM37.7406 171.158V173.7H31.8003V171.158H37.7406ZM38.6225 164.802V167.422H31.8003V164.802H38.6225ZM41.5949 164.802H44.3964L47.587 175.541L50.7777 164.802H53.242L48.7803 180.522H46.3938L41.5949 164.802ZM40.4795 164.802H43.1254L43.5404 175.152V180.522H40.4795V164.802ZM52.0228 164.802H54.6946V180.522H51.6337V175.152L52.0228 164.802ZM62.5759 173.674H59.3594L59.3335 171.365H62.0831C62.5154 171.365 62.8699 171.296 63.1466 171.158C63.4233 171.002 63.6222 170.777 63.7432 170.483C63.8816 170.189 63.9508 169.835 63.9508 169.42C63.9508 168.935 63.8902 168.555 63.7692 168.278C63.6481 167.984 63.4493 167.768 63.1726 167.63C62.9132 167.491 62.5587 167.422 62.109 167.422H60.4229V180.522H57.2583V164.802H62.109C62.8872 164.802 63.5876 164.889 64.2102 165.062C64.8327 165.235 65.3602 165.503 65.7925 165.866C66.2248 166.212 66.5534 166.653 66.7782 167.189C67.003 167.725 67.1154 168.356 67.1154 169.082C67.1154 169.74 66.9857 170.345 66.7263 170.898C66.4669 171.434 66.0605 171.884 65.5072 172.247C64.9538 172.593 64.2361 172.783 63.3541 172.818L62.5759 173.674ZM62.4462 180.522H58.4515L59.7226 177.902H62.4462C62.8786 177.902 63.2158 177.816 63.4579 177.643C63.7173 177.452 63.9075 177.21 64.0286 176.916C64.1496 176.605 64.2102 176.25 64.2102 175.853C64.2102 175.403 64.1583 175.014 64.0545 174.685C63.9508 174.357 63.7778 174.106 63.5357 173.933C63.2936 173.76 62.9737 173.674 62.5759 173.674H59.8523L59.8782 171.365H63.1726L63.9248 172.273C64.7722 172.256 65.4466 172.42 65.9481 172.766C66.4496 173.112 66.8128 173.57 67.0376 174.141C67.2624 174.694 67.3748 175.282 67.3748 175.905C67.3748 176.908 67.1846 177.755 66.8042 178.447C66.4237 179.138 65.8703 179.657 65.144 180.003C64.4177 180.349 63.5184 180.522 62.4462 180.522ZM76.7538 164.802H79.8925V175.593C79.8925 176.804 79.6677 177.79 79.2181 178.55C78.7857 179.311 78.1805 179.865 77.4023 180.211C76.6241 180.556 75.7335 180.729 74.7305 180.729C73.7274 180.729 72.8282 180.556 72.0327 180.211C71.2545 179.865 70.6492 179.311 70.2169 178.55C69.7846 177.79 69.5684 176.804 69.5684 175.593V164.802H72.7071V175.593C72.7071 176.285 72.785 176.812 72.9406 177.176C73.0962 177.539 73.3211 177.79 73.615 177.928C73.9263 178.066 74.2981 178.135 74.7305 178.135C75.1801 178.135 75.5519 178.066 75.8459 177.928C76.1399 177.79 76.3647 177.539 76.5203 177.176C76.676 176.812 76.7538 176.285 76.7538 175.593V164.802ZM87.7712 167.604L84.373 180.522H81.0527L85.9554 164.802H88.0306L87.7712 167.604ZM90.443 180.522L87.0189 167.604L86.7076 164.802H88.8347L93.7892 180.522H90.443ZM90.5467 174.659V177.279H83.4392V174.659H90.5467ZM100.258 164.802V180.522H97.1195V164.802H100.258ZM104.149 164.802V167.422H93.2804V164.802H104.149ZM110.405 167.604L107.007 180.522H103.686L108.589 164.802H110.664L110.405 167.604ZM113.077 180.522L109.652 167.604L109.341 164.802H111.468L116.423 180.522H113.077ZM113.18 174.659V177.279H106.073V174.659H113.18ZM128.91 164.802V180.522H125.849L120.92 170.691V180.522H117.911V164.802H120.92L125.901 174.737V164.802H128.91ZM143.226 176.372C143.226 176.095 143.2 175.844 143.148 175.619C143.096 175.394 142.984 175.187 142.811 174.997C142.655 174.789 142.422 174.59 142.11 174.4C141.816 174.21 141.419 174.011 140.917 173.803C140.346 173.544 139.784 173.276 139.231 172.999C138.678 172.723 138.185 172.403 137.752 172.04C137.32 171.676 136.974 171.244 136.715 170.743C136.455 170.241 136.326 169.653 136.326 168.979C136.326 168.304 136.447 167.699 136.689 167.163C136.931 166.627 137.277 166.168 137.727 165.788C138.176 165.39 138.695 165.088 139.283 164.88C139.888 164.673 140.563 164.569 141.306 164.569C142.309 164.569 143.183 164.785 143.926 165.217C144.67 165.632 145.24 166.203 145.638 166.929C146.053 167.656 146.261 168.486 146.261 169.42H143.096C143.096 168.97 143.036 168.581 142.915 168.252C142.793 167.906 142.595 167.638 142.318 167.448C142.041 167.241 141.687 167.137 141.254 167.137C140.857 167.137 140.519 167.223 140.243 167.396C139.983 167.552 139.793 167.768 139.672 168.045C139.551 168.321 139.49 168.633 139.49 168.979C139.49 169.238 139.551 169.471 139.672 169.679C139.793 169.887 139.966 170.077 140.191 170.25C140.416 170.405 140.675 170.561 140.969 170.717C141.28 170.855 141.626 170.993 142.007 171.132C142.716 171.426 143.338 171.737 143.874 172.065C144.428 172.394 144.886 172.766 145.249 173.181C145.63 173.596 145.906 174.063 146.079 174.582C146.269 175.1 146.365 175.697 146.365 176.372C146.365 177.029 146.252 177.625 146.027 178.161C145.802 178.697 145.474 179.156 145.042 179.536C144.609 179.917 144.09 180.211 143.485 180.418C142.88 180.626 142.197 180.729 141.436 180.729C140.71 180.729 140.018 180.634 139.361 180.444C138.721 180.237 138.15 179.925 137.649 179.51C137.164 179.078 136.784 178.533 136.507 177.876C136.231 177.219 136.092 176.449 136.092 175.567H139.257C139.257 176.034 139.3 176.441 139.387 176.787C139.49 177.115 139.637 177.383 139.828 177.591C140.018 177.781 140.251 177.928 140.528 178.032C140.822 178.118 141.151 178.161 141.514 178.161C141.929 178.161 142.257 178.084 142.499 177.928C142.759 177.772 142.94 177.565 143.044 177.305C143.165 177.029 143.226 176.717 143.226 176.372ZM154.205 167.604L150.806 180.522H147.486L152.389 164.802H154.464L154.205 167.604ZM156.876 180.522L153.452 167.604L153.141 164.802H155.268L160.223 180.522H156.876ZM156.98 174.659V177.279H149.873V174.659H156.98ZM162.827 164.802H165.628L168.819 175.541L172.009 164.802H174.474L170.012 180.522H167.625L162.827 164.802ZM161.711 164.802H164.357L164.772 175.152V180.522H161.711V164.802ZM173.254 164.802H175.926V180.522H172.865V175.152L173.254 164.802ZM183.859 174.971H180.643V172.351H183.859C184.309 172.351 184.672 172.256 184.949 172.065C185.226 171.858 185.425 171.581 185.546 171.235C185.684 170.872 185.753 170.466 185.753 170.016C185.753 169.567 185.684 169.143 185.546 168.745C185.425 168.347 185.226 168.028 184.949 167.785C184.672 167.543 184.309 167.422 183.859 167.422H181.655V180.522H178.49V164.802H183.859C184.914 164.802 185.822 165.027 186.583 165.477C187.344 165.909 187.923 166.523 188.321 167.318C188.736 168.097 188.944 168.987 188.944 169.99C188.944 171.011 188.736 171.893 188.321 172.636C187.923 173.38 187.344 173.959 186.583 174.374C185.822 174.772 184.914 174.971 183.859 174.971ZM200.093 177.902V180.522H193.245V177.902H200.093ZM194.231 164.802V180.522H191.066V164.802H194.231ZM199.185 171.158V173.7H193.245V171.158H199.185ZM200.067 164.802V167.422H193.245V164.802H200.067ZM210.666 177.902V180.522H204.129V177.902H210.666ZM205.089 164.802V180.522H201.924V164.802H205.089ZM222.981 174.971H219.765V172.351H222.981C223.431 172.351 223.794 172.256 224.071 172.065C224.347 171.858 224.546 171.581 224.667 171.235C224.806 170.872 224.875 170.466 224.875 170.016C224.875 169.567 224.806 169.143 224.667 168.745C224.546 168.347 224.347 168.028 224.071 167.785C223.794 167.543 223.431 167.422 222.981 167.422H220.776V180.522H217.612V164.802H222.981C224.036 164.802 224.944 165.027 225.705 165.477C226.466 165.909 227.045 166.523 227.443 167.318C227.858 168.097 228.065 168.987 228.065 169.99C228.065 171.011 227.858 171.893 227.443 172.636C227.045 173.38 226.466 173.959 225.705 174.374C224.944 174.772 224.036 174.971 222.981 174.971ZM230.213 164.802H235.246C236.301 164.802 237.2 164.984 237.944 165.347C238.687 165.693 239.249 166.22 239.63 166.929C240.027 167.638 240.226 168.512 240.226 169.549C240.226 170.397 240.114 171.123 239.889 171.728C239.664 172.334 239.336 172.835 238.903 173.233C238.488 173.631 237.987 173.95 237.399 174.193L236.413 174.763H232.34L232.315 172.117H235.168C235.6 172.117 235.955 172.022 236.231 171.832C236.525 171.642 236.742 171.374 236.88 171.028C237.018 170.682 237.087 170.276 237.087 169.809C237.087 169.307 237.018 168.884 236.88 168.538C236.759 168.174 236.56 167.898 236.283 167.708C236.024 167.517 235.678 167.422 235.246 167.422H233.378V180.522H230.213V164.802ZM237.347 180.522L234.468 173.518L237.788 173.492L240.719 180.366V180.522H237.347ZM253.479 171.443V174.063C253.479 175.17 253.341 176.138 253.064 176.968C252.805 177.798 252.424 178.499 251.923 179.069C251.438 179.623 250.85 180.038 250.159 180.314C249.467 180.591 248.697 180.729 247.85 180.729C247.003 180.729 246.233 180.591 245.541 180.314C244.85 180.038 244.253 179.623 243.751 179.069C243.25 178.499 242.861 177.798 242.584 176.968C242.307 176.138 242.169 175.17 242.169 174.063V171.443C242.169 170.302 242.299 169.307 242.558 168.46C242.835 167.595 243.224 166.878 243.726 166.307C244.227 165.736 244.824 165.304 245.515 165.01C246.207 164.716 246.977 164.569 247.824 164.569C248.671 164.569 249.441 164.716 250.133 165.01C250.824 165.304 251.421 165.736 251.923 166.307C252.424 166.878 252.805 167.595 253.064 168.46C253.341 169.307 253.479 170.302 253.479 171.443ZM250.34 174.063V171.417C250.34 170.673 250.288 170.034 250.185 169.497C250.081 168.961 249.917 168.529 249.692 168.2C249.484 167.855 249.225 167.604 248.914 167.448C248.602 167.293 248.239 167.215 247.824 167.215C247.409 167.215 247.046 167.293 246.735 167.448C246.423 167.604 246.155 167.855 245.93 168.2C245.723 168.529 245.567 168.961 245.464 169.497C245.36 170.034 245.308 170.673 245.308 171.417V174.063C245.308 174.789 245.36 175.412 245.464 175.931C245.585 176.432 245.749 176.847 245.956 177.176C246.181 177.487 246.449 177.72 246.761 177.876C247.072 178.032 247.435 178.109 247.85 178.109C248.248 178.109 248.602 178.032 248.914 177.876C249.225 177.72 249.484 177.487 249.692 177.176C249.917 176.847 250.081 176.432 250.185 175.931C250.288 175.412 250.34 174.789 250.34 174.063ZM259.881 180.522H257.105L257.131 177.902H259.881C260.659 177.902 261.256 177.772 261.671 177.513C262.103 177.236 262.406 176.804 262.579 176.216C262.752 175.611 262.838 174.832 262.838 173.881V171.417C262.838 170.691 262.786 170.077 262.682 169.575C262.596 169.074 262.44 168.667 262.215 168.356C261.991 168.028 261.688 167.794 261.308 167.656C260.944 167.5 260.486 167.422 259.933 167.422H257.053V164.802H259.933C260.849 164.802 261.671 164.949 262.397 165.243C263.141 165.537 263.781 165.97 264.317 166.54C264.853 167.094 265.259 167.785 265.536 168.615C265.83 169.446 265.977 170.388 265.977 171.443V173.881C265.977 174.936 265.83 175.879 265.536 176.709C265.259 177.522 264.853 178.213 264.317 178.784C263.798 179.355 263.158 179.787 262.397 180.081C261.653 180.375 260.815 180.522 259.881 180.522ZM258.947 164.802V180.522H255.782V164.802H258.947ZM275.364 164.802H278.503V175.593C278.503 176.804 278.278 177.79 277.829 178.55C277.396 179.311 276.791 179.865 276.013 180.211C275.235 180.556 274.344 180.729 273.341 180.729C272.338 180.729 271.439 180.556 270.643 180.211C269.865 179.865 269.26 179.311 268.827 178.55C268.395 177.79 268.179 176.804 268.179 175.593V164.802H271.318V175.593C271.318 176.285 271.396 176.812 271.551 177.176C271.707 177.539 271.932 177.79 272.226 177.928C272.537 178.066 272.909 178.135 273.341 178.135C273.791 178.135 274.162 178.066 274.456 177.928C274.75 177.79 274.975 177.539 275.131 177.176C275.286 176.812 275.364 176.285 275.364 175.593V164.802ZM284.077 164.802V180.522H280.913V164.802H284.077ZM291.885 164.802L286.801 172.61L283.662 176.501L283.066 173.337L285.089 169.964L288.046 164.802H291.885ZM288.254 180.522L284.804 173.285L287.138 171.235L291.963 180.522H288.254Z" fill="white"/>
<path d="M15.5082 56.3324C14.6262 56.3324 13.874 56.1681 13.2514 55.8395C12.6288 55.511 12.1273 55.0613 11.7469 54.4907V56.1768H10.1646V41.4429H11.7469V47.3572C12.1273 46.7865 12.6288 46.3369 13.2514 46.0083C13.874 45.6624 14.6262 45.4895 15.5082 45.4895C16.5285 45.4895 17.4191 45.7316 18.18 46.2158C18.9409 46.7 19.5289 47.3572 19.9439 48.1873C20.3762 49 20.5924 49.9079 20.5924 50.9109C20.5924 51.914 20.3762 52.8305 19.9439 53.6606C19.5289 54.4907 18.9409 55.1478 18.18 55.632C17.4191 56.0989 16.5285 56.3324 15.5082 56.3324ZM15.3007 54.9057C16.0789 54.9057 16.7446 54.7241 17.298 54.361C17.8514 53.9978 18.2751 53.5136 18.5691 52.9083C18.8631 52.3031 19.0101 51.6373 19.0101 50.9109C19.0101 50.1846 18.8631 49.5188 18.5691 48.9136C18.2751 48.3083 17.8514 47.8241 17.298 47.4609C16.7446 47.0978 16.0789 46.9162 15.3007 46.9162C14.5225 46.9162 13.8567 47.0978 13.3033 47.4609C12.7672 47.8241 12.3522 48.3083 12.0582 48.9136C11.7815 49.5188 11.6431 50.1846 11.6431 50.9109C11.6431 51.6373 11.7815 52.3031 12.0582 52.9083C12.3522 53.5136 12.7672 53.9978 13.3033 54.361C13.8567 54.7241 14.5225 54.9057 15.3007 54.9057ZM27.1175 56.3324C26.0972 56.3324 25.198 56.0989 24.4198 55.632C23.6589 55.1478 23.0709 54.4907 22.6559 53.6606C22.2408 52.8305 22.0333 51.914 22.0333 50.9109C22.0333 49.9079 22.2408 49 22.6559 48.1873C23.0709 47.3572 23.6589 46.7 24.4198 46.2158C25.198 45.7316 26.0972 45.4895 27.1175 45.4895C27.9822 45.4895 28.7258 45.6624 29.3484 46.0083C29.9709 46.3369 30.4811 46.7865 30.8788 47.3572V45.6451H32.4612V56.1768H30.8788V54.4907C30.4811 55.0613 29.9709 55.511 29.3484 55.8395C28.7258 56.1681 27.9822 56.3324 27.1175 56.3324ZM27.3251 54.9057C28.1033 54.9057 28.7604 54.7241 29.2965 54.361C29.8499 53.9978 30.2649 53.5136 30.5416 52.9083C30.8183 52.3031 30.9567 51.6373 30.9567 50.9109C30.9567 50.1846 30.8183 49.5188 30.5416 48.9136C30.2649 48.3083 29.8499 47.8241 29.2965 47.4609C28.7604 47.0978 28.1033 46.9162 27.3251 46.9162C26.5469 46.9162 25.8724 47.0978 25.3017 47.4609C24.7484 47.8241 24.3247 48.3083 24.0307 48.9136C23.7367 49.5188 23.5897 50.1846 23.5897 50.9109C23.5897 51.6373 23.7367 52.3031 24.0307 52.9083C24.3247 53.5136 24.7484 53.9978 25.3017 54.361C25.8724 54.7241 26.5469 54.9057 27.3251 54.9057ZM35.1991 56.1768V41.4429H36.7814V50.885L41.8397 45.6451H44.0446L39.8164 49.7955L44.3559 56.1768H42.4363L38.7529 50.885L36.7814 52.8564V56.1768H35.1991ZM49.8584 56.3324C49.132 56.3324 48.449 56.1681 47.8091 55.8395C47.1693 55.4937 46.6505 54.9835 46.2527 54.3091C45.855 53.6174 45.6561 52.7786 45.6561 51.7929V45.6451H47.2125V51.741C47.2125 52.6922 47.4892 53.4617 48.0426 54.0497C48.6132 54.6204 49.3223 54.9057 50.1696 54.9057C50.7576 54.9057 51.2851 54.776 51.752 54.5166C52.2362 54.2399 52.6166 53.8681 52.8933 53.4012C53.1873 52.917 53.3343 52.3549 53.3343 51.7151V45.6451H54.9167V56.1768H53.3343V54.5425C52.9712 55.044 52.5129 55.4677 51.9595 55.8136C51.4061 56.1595 50.7057 56.3324 49.8584 56.3324ZM74.881 56.3324C73.8607 56.3324 72.9614 56.0989 72.1832 55.632C71.4223 55.1478 70.8344 54.4907 70.4193 53.6606C70.0043 52.8305 69.7968 51.914 69.7968 50.9109C69.7968 49.9079 70.0043 49 70.4193 48.1873C70.8344 47.3572 71.4223 46.7 72.1832 46.2158C72.9614 45.7316 73.8607 45.4895 74.881 45.4895C75.7457 45.4895 76.4893 45.6624 77.1118 46.0083C77.7344 46.3369 78.2445 46.7865 78.6423 47.3572V41.4429H80.2246V56.1768H78.6423V54.4907C78.2445 55.0613 77.7344 55.511 77.1118 55.8395C76.4893 56.1681 75.7457 56.3324 74.881 56.3324ZM75.0885 54.9057C75.8667 54.9057 76.5238 54.7241 77.0599 54.361C77.6133 53.9978 78.0284 53.5136 78.3051 52.9083C78.5818 52.3031 78.7201 51.6373 78.7201 50.9109C78.7201 50.1846 78.5818 49.5188 78.3051 48.9136C78.0284 48.3083 77.6133 47.8241 77.0599 47.4609C76.5238 47.0978 75.8667 46.9162 75.0885 46.9162C74.3103 46.9162 73.6359 47.0978 73.0652 47.4609C72.5118 47.8241 72.0881 48.3083 71.7941 48.9136C71.5001 49.5188 71.3532 50.1846 71.3532 50.9109C71.3532 51.6373 71.5001 52.3031 71.7941 52.9083C72.0881 53.5136 72.5118 53.9978 73.0652 54.361C73.6359 54.7241 74.3103 54.9057 75.0885 54.9057ZM82.8847 43.8812V41.832H84.5967V43.8812H82.8847ZM82.9625 56.1768V45.6451H84.5449V56.1768H82.9625ZM91.0884 56.3324C90.1199 56.3324 89.2985 56.1768 88.6241 55.8655C87.9669 55.5369 87.4654 55.1132 87.1195 54.5944C86.7737 54.0583 86.5748 53.4877 86.5229 52.8824H88.1831C88.2177 53.2283 88.3387 53.5655 88.5462 53.894C88.7538 54.2226 89.065 54.4907 89.4801 54.6982C89.8951 54.9057 90.4399 55.0095 91.1143 55.0095C91.3218 55.0095 91.5812 54.9922 91.8925 54.9576C92.2038 54.9057 92.4978 54.8279 92.7745 54.7241C93.0684 54.6031 93.3105 54.4301 93.5008 54.2053C93.7083 53.9805 93.8121 53.6952 93.8121 53.3493C93.8121 52.8997 93.6391 52.5625 93.2933 52.3376C92.9647 52.0955 92.5323 51.9053 91.9963 51.767C91.4602 51.6286 90.8895 51.4989 90.2842 51.3779C89.6962 51.2568 89.1342 51.0925 88.5981 50.885C88.0793 50.6775 87.647 50.3922 87.3011 50.029C86.9726 49.6485 86.8083 49.1384 86.8083 48.4985C86.8083 47.5474 87.1541 46.8124 87.8459 46.2936C88.5376 45.7575 89.5665 45.4895 90.9327 45.4895C91.8493 45.4895 92.6015 45.6365 93.1895 45.9305C93.7775 46.2072 94.2184 46.5703 94.5124 47.02C94.8237 47.4696 95.0053 47.9538 95.0572 48.4726H93.4489C93.397 48.023 93.1722 47.6425 92.7745 47.3312C92.394 47.0027 91.7628 46.8384 90.8808 46.8384C89.2207 46.8384 88.3906 47.3399 88.3906 48.3429C88.3906 48.7752 88.5549 49.1038 88.8835 49.3286C89.2293 49.5534 89.6617 49.735 90.1805 49.8734C90.7166 49.9944 91.2786 50.1155 91.8666 50.2365C92.4718 50.3576 93.0425 50.5219 93.5786 50.7294C94.1147 50.9369 94.547 51.2395 94.8756 51.6373C95.2215 52.0177 95.3944 52.5365 95.3944 53.1937C95.3944 54.214 95.0053 54.9922 94.2271 55.5283C93.4489 56.0644 92.4026 56.3324 91.0884 56.3324ZM102.084 56.3324C101.012 56.3324 100.078 56.0989 99.2829 55.632C98.4874 55.1478 97.8648 54.4907 97.4152 53.6606C96.9829 52.8305 96.7667 51.914 96.7667 50.9109C96.7667 49.9079 96.9742 49 97.3893 48.1873C97.8043 47.3572 98.4009 46.7 99.1791 46.2158C99.9746 45.7316 100.908 45.4895 101.981 45.4895C103.053 45.4895 103.978 45.7316 104.756 46.2158C105.534 46.7 106.131 47.3572 106.546 48.1873C106.978 49 107.195 49.9079 107.195 50.9109V51.5594H98.375C98.4615 52.1647 98.6603 52.7267 98.9716 53.2455C99.2829 53.747 99.7066 54.1534 100.243 54.4647C100.779 54.7587 101.401 54.9057 102.11 54.9057C102.854 54.9057 103.477 54.7414 103.978 54.4128C104.48 54.0843 104.869 53.6606 105.145 53.1418H106.883C106.52 54.0929 105.941 54.8625 105.145 55.4504C104.35 56.0384 103.33 56.3324 102.084 56.3324ZM98.4009 50.0809H105.56C105.405 49.1816 105.016 48.4294 104.393 47.8241C103.788 47.2188 102.984 46.9162 101.981 46.9162C100.96 46.9162 100.148 47.2188 99.5423 47.8241C98.937 48.4294 98.5566 49.1816 98.4009 50.0809ZM110.274 56.1768V47.0459H108.121V45.6451H110.274V41.8839H111.831V45.6451H114.269V47.0459H111.831V56.1768H110.274ZM120.09 56.3324C119.363 56.3324 118.68 56.1681 118.041 55.8395C117.401 55.4937 116.882 54.9835 116.484 54.3091C116.086 53.6174 115.888 52.7786 115.888 51.7929V45.6451H117.444V51.741C117.444 52.6922 117.721 53.4617 118.274 54.0497C118.845 54.6204 119.554 54.9057 120.401 54.9057C120.989 54.9057 121.516 54.776 121.983 54.5166C122.468 54.2399 122.848 53.8681 123.125 53.4012C123.419 52.917 123.566 52.3549 123.566 51.7151V45.6451H125.148V56.1768H123.566V54.5425C123.203 55.044 122.744 55.4677 122.191 55.8136C121.638 56.1595 120.937 56.3324 120.09 56.3324ZM127.821 43.8812V41.832H129.533V43.8812H127.821ZM127.898 60.3531V45.6451H129.481V60.3531H127.898ZM136.31 56.3324C135.583 56.3324 134.9 56.1681 134.26 55.8395C133.621 55.4937 133.102 54.9835 132.704 54.3091C132.306 53.6174 132.107 52.7786 132.107 51.7929V45.6451H133.664V51.741C133.664 52.6922 133.94 53.4617 134.494 54.0497C135.064 54.6204 135.774 54.9057 136.621 54.9057C137.209 54.9057 137.736 54.776 138.203 54.5166C138.687 54.2399 139.068 53.8681 139.345 53.4012C139.639 52.917 139.786 52.3549 139.786 51.7151V45.6451H141.368V56.1768H139.786V54.5425C139.422 55.044 138.964 55.4677 138.411 55.8136C137.857 56.1595 137.157 56.3324 136.31 56.3324ZM144.04 43.8812V41.832H145.752V43.8812H144.04ZM144.118 56.1768V45.6451H145.701V56.1768H144.118ZM147.29 58.5114L148.509 54.0237H150.558L148.716 58.5114H147.29ZM165.837 56.1768V41.4429H167.42V50.885L172.478 45.6451H174.683L170.455 49.7955L174.994 56.1768H173.075L169.391 50.885L167.42 52.8564V56.1768H165.837ZM180.308 56.3324C179.287 56.3324 178.388 56.0989 177.61 55.632C176.849 55.1478 176.261 54.4907 175.846 53.6606C175.431 52.8305 175.223 51.914 175.223 50.9109C175.223 49.9079 175.431 49 175.846 48.1873C176.261 47.3572 176.849 46.7 177.61 46.2158C178.388 45.7316 179.287 45.4895 180.308 45.4895C181.172 45.4895 181.916 45.6624 182.538 46.0083C183.161 46.3369 183.671 46.7865 184.069 47.3572V45.6451H185.651V56.1768H184.069V54.4907C183.671 55.0613 183.161 55.511 182.538 55.8395C181.916 56.1681 181.172 56.3324 180.308 56.3324ZM180.515 54.9057C181.293 54.9057 181.95 54.7241 182.487 54.361C183.04 53.9978 183.455 53.5136 183.732 52.9083C184.008 52.3031 184.147 51.6373 184.147 50.9109C184.147 50.1846 184.008 49.5188 183.732 48.9136C183.455 48.3083 183.04 47.8241 182.487 47.4609C181.95 47.0978 181.293 46.9162 180.515 46.9162C179.737 46.9162 179.063 47.0978 178.492 47.4609C177.938 47.8241 177.515 48.3083 177.221 48.9136C176.927 49.5188 176.78 50.1846 176.78 50.9109C176.78 51.6373 176.927 52.3031 177.221 52.9083C177.515 53.5136 177.938 53.9978 178.492 54.361C179.063 54.7241 179.737 54.9057 180.515 54.9057ZM188.389 56.1768V45.6451H189.971V47.2534C190.196 46.8384 190.568 46.4406 191.087 46.0602C191.606 45.6797 192.297 45.4895 193.162 45.4895C193.854 45.4895 194.494 45.6797 195.082 46.0602C195.687 46.4233 196.162 46.9421 196.508 47.6166C196.647 47.3745 196.863 47.0891 197.157 46.7606C197.468 46.4147 197.866 46.1207 198.35 45.8786C198.852 45.6192 199.44 45.4895 200.114 45.4895C200.788 45.4895 201.42 45.6711 202.008 46.0342C202.596 46.3801 203.071 46.8816 203.434 47.5388C203.815 48.1786 204.005 48.9395 204.005 49.8215V56.1768H202.423V49.8734C202.423 48.9914 202.172 48.2824 201.67 47.7463C201.186 47.1929 200.572 46.9162 199.829 46.9162C199.05 46.9162 198.376 47.1756 197.805 47.6944C197.252 48.2132 196.975 48.9482 196.975 49.8993V56.1768H195.419V49.8734C195.419 48.9914 195.168 48.2824 194.667 47.7463C194.165 47.1929 193.543 46.9162 192.799 46.9162C192.021 46.9162 191.355 47.1756 190.802 47.6944C190.248 48.2132 189.971 48.9482 189.971 49.8993V56.1768H188.389ZM206.572 43.8812V41.832H208.284V43.8812H206.572ZM206.65 56.1768V45.6451H208.232V56.1768H206.65ZM228.597 56.3324C227.577 56.3324 226.678 56.0989 225.9 55.632C225.139 55.1478 224.551 54.4907 224.136 53.6606C223.721 52.8305 223.513 51.914 223.513 50.9109C223.513 49.9079 223.721 49 224.136 48.1873C224.551 47.3572 225.139 46.7 225.9 46.2158C226.678 45.7316 227.577 45.4895 228.597 45.4895C229.462 45.4895 230.206 45.6624 230.828 46.0083C231.451 46.3369 231.961 46.7865 232.359 47.3572V45.6451H233.941V56.1768H232.359V54.4907C231.961 55.0613 231.451 55.511 230.828 55.8395C230.206 56.1681 229.462 56.3324 228.597 56.3324ZM228.805 54.9057C229.583 54.9057 230.24 54.7241 230.776 54.361C231.33 53.9978 231.745 53.5136 232.021 52.9083C232.298 52.3031 232.436 51.6373 232.436 50.9109C232.436 50.1846 232.298 49.5188 232.021 48.9136C231.745 48.3083 231.33 47.8241 230.776 47.4609C230.24 47.0978 229.583 46.9162 228.805 46.9162C228.027 46.9162 227.352 47.0978 226.781 47.4609C226.228 47.8241 225.804 48.3083 225.51 48.9136C225.216 49.5188 225.069 50.1846 225.069 50.9109C225.069 51.6373 225.216 52.3031 225.51 52.9083C225.804 53.5136 226.228 53.9978 226.781 54.361C227.352 54.7241 228.027 54.9057 228.805 54.9057ZM236.679 56.1768V41.4429H238.261V50.885L243.319 45.6451H245.524L241.296 49.7955L245.836 56.1768H243.916L240.233 50.885L238.261 52.8564V56.1768H236.679ZM251.149 56.3324C250.129 56.3324 249.229 56.0989 248.451 55.632C247.69 55.1478 247.102 54.4907 246.687 53.6606C246.272 52.8305 246.065 51.914 246.065 50.9109C246.065 49.9079 246.272 49 246.687 48.1873C247.102 47.3572 247.69 46.7 248.451 46.2158C249.229 45.7316 250.129 45.4895 251.149 45.4895C252.014 45.4895 252.757 45.6624 253.38 46.0083C254.002 46.3369 254.513 46.7865 254.91 47.3572V45.6451H256.493V56.1768H254.91V54.4907C254.513 55.0613 254.002 55.511 253.38 55.8395C252.757 56.1681 252.014 56.3324 251.149 56.3324ZM251.357 54.9057C252.135 54.9057 252.792 54.7241 253.328 54.361C253.881 53.9978 254.296 53.5136 254.573 52.9083C254.85 52.3031 254.988 51.6373 254.988 50.9109C254.988 50.1846 254.85 49.5188 254.573 48.9136C254.296 48.3083 253.881 47.8241 253.328 47.4609C252.792 47.0978 252.135 46.9162 251.357 46.9162C250.578 46.9162 249.904 47.0978 249.333 47.4609C248.78 47.8241 248.356 48.3083 248.062 48.9136C247.768 49.5188 247.621 50.1846 247.621 50.9109C247.621 51.6373 247.768 52.3031 248.062 52.9083C248.356 53.5136 248.78 53.9978 249.333 54.361C249.904 54.7241 250.578 54.9057 251.357 54.9057ZM259.231 56.1768V45.6451H260.813V47.3053C261.176 46.8038 261.634 46.3801 262.188 46.0342C262.741 45.6711 263.442 45.4895 264.289 45.4895C265.015 45.4895 265.698 45.6624 266.338 46.0083C266.978 46.3542 267.497 46.8643 267.895 47.5388C268.292 48.2132 268.491 49.0519 268.491 50.0549V56.1768H266.935V50.1068C266.935 49.1384 266.658 48.3688 266.105 47.7982C265.551 47.2102 264.842 46.9162 263.978 46.9162C263.39 46.9162 262.854 47.0545 262.369 47.3312C261.902 47.5906 261.522 47.9624 261.228 48.4467C260.951 48.9309 260.813 49.4843 260.813 50.1068V56.1768H259.231Z" fill="#3B405D"/>
<path d="M10.1646 91.5581V81.0265H11.7469V82.6348C11.9717 82.2197 12.3435 81.822 12.8623 81.4415C13.3811 81.0611 14.0728 80.8708 14.9375 80.8708C15.6292 80.8708 16.2691 81.0611 16.8571 81.4415C17.4623 81.8047 17.9379 82.3235 18.2838 82.9979C18.4221 82.7558 18.6383 82.4705 18.9323 82.1419C19.2435 81.796 19.6413 81.5021 20.1255 81.2599C20.627 81.0005 21.215 80.8708 21.8894 80.8708C22.5638 80.8708 23.195 81.0524 23.783 81.4156C24.371 81.7615 24.8466 82.263 25.2097 82.9201C25.5902 83.56 25.7804 84.3209 25.7804 85.2028V91.5581H24.1981V85.2547C24.1981 84.3727 23.9473 83.6637 23.4458 83.1276C22.9616 82.5742 22.3477 82.2975 21.6041 82.2975C20.8259 82.2975 20.1514 82.5569 19.5807 83.0757C19.0274 83.5945 18.7507 84.3295 18.7507 85.2806V91.5581H17.1943V85.2547C17.1943 84.3727 16.9435 83.6637 16.442 83.1276C15.9405 82.5742 15.318 82.2975 14.5743 82.2975C13.7961 82.2975 13.1304 82.5569 12.577 83.0757C12.0236 83.5945 11.7469 84.3295 11.7469 85.2806V91.5581H10.1646ZM33.0942 91.7137C32.022 91.7137 31.0882 91.4803 30.2927 91.0134C29.4972 90.5292 28.8747 89.872 28.425 89.0419C27.9927 88.2119 27.7765 87.2953 27.7765 86.2923C27.7765 85.2893 27.984 84.3814 28.3991 83.5686C28.8141 82.7385 29.4107 82.0814 30.1889 81.5972C30.9844 81.113 31.9183 80.8708 32.9905 80.8708C34.0626 80.8708 34.9878 81.113 35.766 81.5972C36.5442 82.0814 37.1408 82.7385 37.5559 83.5686C37.9882 84.3814 38.2044 85.2893 38.2044 86.2923V86.9408H29.3848C29.4713 87.5461 29.6701 88.1081 29.9814 88.6269C30.2927 89.1284 30.7164 89.5348 31.2525 89.8461C31.7886 90.1401 32.4111 90.287 33.1202 90.287C33.8638 90.287 34.4863 90.1228 34.9878 89.7942C35.4893 89.4656 35.8784 89.0419 36.1551 88.5231H37.8931C37.5299 89.4743 36.9506 90.2438 36.1551 90.8318C35.3596 91.4198 34.3393 91.7137 33.0942 91.7137ZM29.4107 85.4622H36.5702C36.4145 84.563 36.0254 83.8107 35.4029 83.2054C34.7976 82.6002 33.9935 82.2975 32.9905 82.2975C31.9702 82.2975 31.1574 82.6002 30.5521 83.2054C29.9468 83.8107 29.5664 84.563 29.4107 85.4622ZM40.1429 91.5581V81.0265H41.7252V82.6348C41.95 82.2197 42.3218 81.822 42.8406 81.4415C43.3594 81.0611 44.0511 80.8708 44.9158 80.8708C45.6075 80.8708 46.2474 81.0611 46.8354 81.4415C47.4406 81.8047 47.9162 82.3235 48.2621 82.9979C48.4004 82.7558 48.6166 82.4705 48.9106 82.1419C49.2218 81.796 49.6196 81.5021 50.1038 81.2599C50.6053 81.0005 51.1933 80.8708 51.8677 80.8708C52.5422 80.8708 53.1734 81.0524 53.7613 81.4156C54.3493 81.7615 54.8249 82.263 55.188 82.9201C55.5685 83.56 55.7587 84.3209 55.7587 85.2028V91.5581H54.1764V85.2547C54.1764 84.3727 53.9256 83.6637 53.4241 83.1276C52.9399 82.5742 52.326 82.2975 51.5824 82.2975C50.8042 82.2975 50.1297 82.5569 49.5591 83.0757C49.0057 83.5945 48.729 84.3295 48.729 85.2806V91.5581H47.1726V85.2547C47.1726 84.3727 46.9218 83.6637 46.4203 83.1276C45.9188 82.5742 45.2963 82.2975 44.5527 82.2975C43.7745 82.2975 43.1087 82.5569 42.5553 83.0757C42.0019 83.5945 41.7252 84.3295 41.7252 85.2806V91.5581H40.1429ZM63.747 91.7137C62.865 91.7137 62.1128 91.5495 61.4902 91.2209C60.8676 90.8923 60.3661 90.4427 59.9857 89.872V91.5581H58.4033V76.8242H59.9857V82.7385C60.3661 82.1678 60.8676 81.7182 61.4902 81.3896C62.1128 81.0438 62.865 80.8708 63.747 80.8708C64.7673 80.8708 65.6579 81.113 66.4188 81.5972C67.1797 82.0814 67.7677 82.7385 68.1827 83.5686C68.615 84.3814 68.8312 85.2893 68.8312 86.2923C68.8312 87.2953 68.615 88.2119 68.1827 89.0419C67.7677 89.872 67.1797 90.5292 66.4188 91.0134C65.6579 91.4803 64.7673 91.7137 63.747 91.7137ZM63.5395 90.287C64.3176 90.287 64.9834 90.1055 65.5368 89.7423C66.0902 89.3792 66.5139 88.8949 66.8079 88.2897C67.1019 87.6844 67.2489 87.0186 67.2489 86.2923C67.2489 85.566 67.1019 84.9002 66.8079 84.2949C66.5139 83.6897 66.0902 83.2054 65.5368 82.8423C64.9834 82.4791 64.3176 82.2975 63.5395 82.2975C62.7613 82.2975 62.0955 82.4791 61.5421 82.8423C61.006 83.2054 60.5909 83.6897 60.297 84.2949C60.0203 84.9002 59.8819 85.566 59.8819 86.2923C59.8819 87.0186 60.0203 87.6844 60.297 88.2897C60.5909 88.8949 61.006 89.3792 61.5421 89.7423C62.0955 90.1055 62.7613 90.287 63.5395 90.287ZM75.0191 91.7137C74.2928 91.7137 73.6097 91.5495 72.9699 91.2209C72.33 90.875 71.8112 90.3649 71.4135 89.6904C71.0157 88.9987 70.8168 88.16 70.8168 87.1743V81.0265H72.3732V87.1224C72.3732 88.0735 72.6499 88.8431 73.2033 89.431C73.774 90.0017 74.483 90.287 75.3304 90.287C75.9184 90.287 76.4458 90.1573 76.9127 89.8979C77.3969 89.6213 77.7774 89.2495 78.0541 88.7825C78.3481 88.2983 78.4951 87.7363 78.4951 87.0964V81.0265H80.0774V91.5581H78.4951V89.9239C78.1319 90.4254 77.6736 90.8491 77.1203 91.1949C76.5669 91.5408 75.8665 91.7137 75.0191 91.7137ZM87.2635 91.7137C86.2432 91.7137 85.3439 91.4803 84.5657 91.0134C83.8048 90.5292 83.2169 89.872 82.8018 89.0419C82.3868 88.2119 82.1793 87.2953 82.1793 86.2923C82.1793 85.2893 82.3868 84.3814 82.8018 83.5686C83.2169 82.7385 83.8048 82.0814 84.5657 81.5972C85.3439 81.113 86.2432 80.8708 87.2635 80.8708C88.1282 80.8708 88.8718 81.0438 89.4943 81.3896C90.1169 81.7182 90.627 82.1678 91.0248 82.7385V81.0265H92.6071V91.5581H91.0248V89.872C90.627 90.4427 90.1169 90.8923 89.4943 91.2209C88.8718 91.5495 88.1282 91.7137 87.2635 91.7137ZM87.471 90.287C88.2492 90.287 88.9064 90.1055 89.4425 89.7423C89.9958 89.3792 90.4109 88.8949 90.6876 88.2897C90.9643 87.6844 91.1026 87.0186 91.1026 86.2923C91.1026 85.566 90.9643 84.9002 90.6876 84.2949C90.4109 83.6897 89.9958 83.2054 89.4425 82.8423C88.9064 82.4791 88.2492 82.2975 87.471 82.2975C86.6928 82.2975 86.0184 82.4791 85.4477 82.8423C84.8943 83.2054 84.4706 83.6897 84.1766 84.2949C83.8827 84.9002 83.7357 85.566 83.7357 86.2923C83.7357 87.0186 83.8827 87.6844 84.1766 88.2897C84.4706 88.8949 84.8943 89.3792 85.4477 89.7423C86.0184 90.1055 86.6928 90.287 87.471 90.287ZM96.4864 91.5581V82.4272H94.3334V81.0265H96.4864V77.2652H98.0428V81.0265H100.481V82.4272H98.0428V91.5581H96.4864ZM110.497 91.7137C109.529 91.7137 108.708 91.5581 108.033 91.2468C107.376 90.9183 106.874 90.4946 106.529 89.9758C106.183 89.4397 105.984 88.869 105.932 88.2637H107.592C107.627 88.6096 107.748 88.9468 107.955 89.2754C108.163 89.604 108.474 89.872 108.889 90.0795C109.304 90.287 109.849 90.3908 110.523 90.3908C110.731 90.3908 110.99 90.3735 111.302 90.3389C111.613 90.287 111.907 90.2092 112.183 90.1055C112.477 89.9844 112.72 89.8115 112.91 89.5867C113.117 89.3619 113.221 89.0765 113.221 88.7307C113.221 88.281 113.048 87.9438 112.702 87.719C112.374 87.4769 111.941 87.2867 111.405 87.1483C110.869 87.01 110.299 86.8803 109.693 86.7592C109.105 86.6382 108.543 86.4739 108.007 86.2664C107.488 86.0588 107.056 85.7735 106.71 85.4103C106.382 85.0299 106.217 84.5197 106.217 83.8799C106.217 82.9288 106.563 82.1938 107.255 81.675C107.947 81.1389 108.976 80.8708 110.342 80.8708C111.258 80.8708 112.011 81.0178 112.599 81.3118C113.186 81.5885 113.627 81.9517 113.921 82.4013C114.233 82.8509 114.414 83.3351 114.466 83.8539H112.858C112.806 83.4043 112.581 83.0239 112.183 82.7126C111.803 82.384 111.172 82.2197 110.29 82.2197C108.63 82.2197 107.8 82.7212 107.8 83.7242C107.8 84.1566 107.964 84.4851 108.292 84.71C108.638 84.9348 109.071 85.1164 109.589 85.2547C110.126 85.3758 110.688 85.4968 111.276 85.6179C111.881 85.7389 112.452 85.9032 112.988 86.1107C113.524 86.3182 113.956 86.6209 114.285 87.0186C114.63 87.3991 114.803 87.9179 114.803 88.575C114.803 89.5953 114.414 90.3735 113.636 90.9096C112.858 91.4457 111.812 91.7137 110.497 91.7137ZM121.26 91.7137C120.24 91.7137 119.34 91.4803 118.562 91.0134C117.801 90.5292 117.213 89.872 116.798 89.0419C116.383 88.2119 116.176 87.2953 116.176 86.2923C116.176 85.2893 116.383 84.3814 116.798 83.5686C117.213 82.7385 117.801 82.0814 118.562 81.5972C119.34 81.113 120.24 80.8708 121.26 80.8708C122.125 80.8708 122.868 81.0438 123.491 81.3896C124.113 81.7182 124.624 82.1678 125.021 82.7385V81.0265H126.604V91.5581H125.021V89.872C124.624 90.4427 124.113 90.8923 123.491 91.2209C122.868 91.5495 122.125 91.7137 121.26 91.7137ZM121.467 90.287C122.246 90.287 122.903 90.1055 123.439 89.7423C123.992 89.3792 124.407 88.8949 124.684 88.2897C124.961 87.6844 125.099 87.0186 125.099 86.2923C125.099 85.566 124.961 84.9002 124.684 84.2949C124.407 83.6897 123.992 83.2054 123.439 82.8423C122.903 82.4791 122.246 82.2975 121.467 82.2975C120.689 82.2975 120.015 82.4791 119.444 82.8423C118.891 83.2054 118.467 83.6897 118.173 84.2949C117.879 84.9002 117.732 85.566 117.732 86.2923C117.732 87.0186 117.879 87.6844 118.173 88.2897C118.467 88.8949 118.891 89.3792 119.444 89.7423C120.015 90.1055 120.689 90.287 121.467 90.287ZM129.342 91.5581V81.0265H130.924V82.6348C131.149 82.2197 131.52 81.822 132.039 81.4415C132.558 81.0611 133.25 80.8708 134.114 80.8708C134.806 80.8708 135.446 81.0611 136.034 81.4415C136.639 81.8047 137.115 82.3235 137.461 82.9979C137.599 82.7558 137.815 82.4705 138.109 82.1419C138.42 81.796 138.818 81.5021 139.302 81.2599C139.804 81.0005 140.392 80.8708 141.066 80.8708C141.741 80.8708 142.372 81.0524 142.96 81.4156C143.548 81.7615 144.024 82.263 144.387 82.9201C144.767 83.56 144.957 84.3209 144.957 85.2028V91.5581H143.375V85.2547C143.375 84.3727 143.124 83.6637 142.623 83.1276C142.139 82.5742 141.525 82.2975 140.781 82.2975C140.003 82.2975 139.328 82.5569 138.758 83.0757C138.204 83.5945 137.928 84.3295 137.928 85.2806V91.5581H136.371V85.2547C136.371 84.3727 136.12 83.6637 135.619 83.1276C135.117 82.5742 134.495 82.2975 133.751 82.2975C132.973 82.2975 132.307 82.5569 131.754 83.0757C131.201 83.5945 130.924 84.3295 130.924 85.2806V91.5581H129.342ZM147.602 95.7344V81.0265H149.184V82.7126C149.565 82.1419 150.066 81.6923 150.689 81.3637C151.311 81.0351 152.064 80.8708 152.946 80.8708C153.966 80.8708 154.857 81.113 155.617 81.5972C156.378 82.0814 156.966 82.7385 157.381 83.5686C157.814 84.3814 158.03 85.2893 158.03 86.2923C158.03 87.2953 157.814 88.2119 157.381 89.0419C156.966 89.872 156.378 90.5292 155.617 91.0134C154.857 91.4803 153.966 91.7137 152.946 91.7137C152.064 91.7137 151.311 91.5495 150.689 91.2209C150.066 90.875 149.565 90.4167 149.184 89.8461V95.7344H147.602ZM152.738 90.287C153.516 90.287 154.182 90.1055 154.735 89.7423C155.289 89.3792 155.713 88.8949 156.007 88.2897C156.301 87.6844 156.448 87.0186 156.448 86.2923C156.448 85.566 156.301 84.9002 156.007 84.2949C155.713 83.6897 155.289 83.2054 154.735 82.8423C154.182 82.4791 153.516 82.2975 152.738 82.2975C151.96 82.2975 151.294 82.4791 150.741 82.8423C150.205 83.2054 149.79 83.6897 149.496 84.2949C149.219 84.9002 149.081 85.566 149.081 86.2923C149.081 87.0186 149.219 87.6844 149.496 88.2897C149.79 88.8949 150.205 89.3792 150.741 89.7423C151.294 90.1055 151.96 90.287 152.738 90.287ZM164.788 91.7137C163.716 91.7137 162.782 91.4803 161.987 91.0134C161.191 90.5292 160.569 89.872 160.119 89.0419C159.687 88.2119 159.471 87.2953 159.471 86.2923C159.471 85.2893 159.678 84.3814 160.093 83.5686C160.508 82.7385 161.105 82.0814 161.883 81.5972C162.679 81.113 163.612 80.8708 164.685 80.8708C165.757 80.8708 166.682 81.113 167.46 81.5972C168.238 82.0814 168.835 82.7385 169.25 83.5686C169.682 84.3814 169.899 85.2893 169.899 86.2923V86.9408H161.079C161.165 87.5461 161.364 88.1081 161.676 88.6269C161.987 89.1284 162.411 89.5348 162.947 89.8461C163.483 90.1401 164.105 90.287 164.814 90.287C165.558 90.287 166.181 90.1228 166.682 89.7942C167.184 89.4656 167.573 89.0419 167.849 88.5231H169.587C169.224 89.4743 168.645 90.2438 167.849 90.8318C167.054 91.4198 166.034 91.7137 164.788 91.7137ZM161.105 85.4622H168.264C168.109 84.563 167.72 83.8107 167.097 83.2054C166.492 82.6002 165.688 82.2975 164.685 82.2975C163.664 82.2975 162.852 82.6002 162.246 83.2054C161.641 83.8107 161.261 84.563 161.105 85.4622ZM171.837 91.5581V76.8242H173.419V91.5581H171.837ZM180.631 95.7344V81.0265H182.213V82.7126C182.594 82.1419 183.095 81.6923 183.718 81.3637C184.34 81.0351 185.092 80.8708 185.974 80.8708C186.995 80.8708 187.885 81.113 188.646 81.5972C189.407 82.0814 189.995 82.7385 190.41 83.5686C190.842 84.3814 191.059 85.2893 191.059 86.2923C191.059 87.2953 190.842 88.2119 190.41 89.0419C189.995 89.872 189.407 90.5292 188.646 91.0134C187.885 91.4803 186.995 91.7137 185.974 91.7137C185.092 91.7137 184.34 91.5495 183.718 91.2209C183.095 90.875 182.594 90.4167 182.213 89.8461V95.7344H180.631ZM185.767 90.287C186.545 90.287 187.211 90.1055 187.764 89.7423C188.318 89.3792 188.741 88.8949 189.035 88.2897C189.329 87.6844 189.476 87.0186 189.476 86.2923C189.476 85.566 189.329 84.9002 189.035 84.2949C188.741 83.6897 188.318 83.2054 187.764 82.8423C187.211 82.4791 186.545 82.2975 185.767 82.2975C184.989 82.2975 184.323 82.4791 183.769 82.8423C183.233 83.2054 182.818 83.6897 182.524 84.2949C182.248 84.9002 182.109 85.566 182.109 86.2923C182.109 87.0186 182.248 87.6844 182.524 88.2897C182.818 88.8949 183.233 89.3792 183.769 89.7423C184.323 90.1055 184.989 90.287 185.767 90.287ZM193.148 91.5581V81.0265H194.73V83.6205C194.782 83.4476 194.886 83.2141 195.042 82.9201C195.197 82.6088 195.431 82.2975 195.742 81.9863C196.053 81.675 196.442 81.4156 196.909 81.2081C197.376 80.9833 197.938 80.8708 198.595 80.8708H198.699V82.4532H198.518C197.722 82.4532 197.039 82.6694 196.468 83.1017C195.898 83.5167 195.465 84.0701 195.171 84.7618C194.877 85.4363 194.73 86.1626 194.73 86.9408V91.5581H193.148ZM204.698 91.7137C203.625 91.7137 202.692 91.4803 201.896 91.0134C201.118 90.5292 200.521 89.872 200.106 89.0419C199.691 88.2119 199.484 87.2953 199.484 86.2923C199.484 85.2893 199.691 84.3814 200.106 83.5686C200.521 82.7385 201.118 82.0814 201.896 81.5972C202.692 81.113 203.625 80.8708 204.698 80.8708C205.77 80.8708 206.695 81.113 207.473 81.5972C208.251 82.0814 208.848 82.7385 209.263 83.5686C209.695 84.3814 209.912 85.2893 209.912 86.2923C209.912 87.2953 209.695 88.2119 209.263 89.0419C208.848 89.872 208.251 90.5292 207.473 91.0134C206.695 91.4803 205.77 91.7137 204.698 91.7137ZM204.698 90.287C205.476 90.287 206.133 90.1055 206.669 89.7423C207.222 89.3792 207.638 88.8949 207.914 88.2897C208.191 87.6844 208.329 87.0186 208.329 86.2923C208.329 85.566 208.191 84.9002 207.914 84.2949C207.638 83.6897 207.222 83.2054 206.669 82.8423C206.133 82.4791 205.476 82.2975 204.698 82.2975C203.919 82.2975 203.254 82.4791 202.7 82.8423C202.164 83.2054 201.749 83.6897 201.455 84.2949C201.178 84.9002 201.04 85.566 201.04 86.2923C201.04 87.0186 201.178 87.6844 201.455 88.2897C201.749 88.8949 202.164 89.3792 202.7 89.7423C203.254 90.1055 203.919 90.287 204.698 90.287ZM216.433 91.7137C215.413 91.7137 214.514 91.4803 213.735 91.0134C212.974 90.5292 212.386 89.872 211.971 89.0419C211.556 88.2119 211.349 87.2953 211.349 86.2923C211.349 85.2893 211.556 84.3814 211.971 83.5686C212.386 82.7385 212.974 82.0814 213.735 81.5972C214.514 81.113 215.413 80.8708 216.433 80.8708C217.298 80.8708 218.041 81.0438 218.664 81.3896C219.286 81.7182 219.797 82.1678 220.194 82.7385V76.8242H221.777V91.5581H220.194V89.872C219.797 90.4427 219.286 90.8923 218.664 91.2209C218.041 91.5495 217.298 91.7137 216.433 91.7137ZM216.641 90.287C217.419 90.287 218.076 90.1055 218.612 89.7423C219.165 89.3792 219.58 88.8949 219.857 88.2897C220.134 87.6844 220.272 87.0186 220.272 86.2923C220.272 85.566 220.134 84.9002 219.857 84.2949C219.58 83.6897 219.165 83.2054 218.612 82.8423C218.076 82.4791 217.419 82.2975 216.641 82.2975C215.862 82.2975 215.188 82.4791 214.617 82.8423C214.064 83.2054 213.64 83.6897 213.346 84.2949C213.052 84.9002 212.905 85.566 212.905 86.2923C212.905 87.0186 213.052 87.6844 213.346 88.2897C213.64 88.8949 214.064 89.3792 214.617 89.7423C215.188 90.1055 215.862 90.287 216.641 90.287ZM228.613 91.7137C227.887 91.7137 227.204 91.5495 226.564 91.2209C225.924 90.875 225.405 90.3649 225.007 89.6904C224.61 88.9987 224.411 88.16 224.411 87.1743V81.0265H225.967V87.1224C225.967 88.0735 226.244 88.8431 226.797 89.431C227.368 90.0017 228.077 90.287 228.924 90.287C229.512 90.287 230.04 90.1573 230.507 89.8979C230.991 89.6213 231.371 89.2495 231.648 88.7825C231.942 88.2983 232.089 87.7363 232.089 87.0964V81.0265H233.671V91.5581H232.089V89.9239C231.726 90.4254 231.268 90.8491 230.714 91.1949C230.161 91.5408 229.46 91.7137 228.613 91.7137ZM236.422 91.5581V76.8242H238.004V86.2664L243.062 81.0265H245.267L241.039 85.1769L245.579 91.5581H243.659L239.976 86.2664L238.004 88.2378V91.5581H236.422Z" fill="#3B405D"/>
</svg>
